<?xml version="1.0" encoding="UTF-8" standalone="no"?>
<!DOCTYPE svg PUBLIC "-//W3C//DTD SVG 1.1//EN" "http://www.w3.org/Graphics/SVG/1.1/DTD/svg11.dtd">
<svg width="100%" height="100%" viewBox="0 0 500 500" version="1.1" xmlns="http://www.w3.org/2000/svg" xmlns:xlink="http://www.w3.org/1999/xlink" xml:space="preserve" xmlns:serif="http://www.serif.com/" style="fill-rule:evenodd;clip-rule:evenodd;stroke-linejoin:round;stroke-miterlimit:2;">
    <path d="M250.808,0.001L251.616,0.005L252.423,0.012L253.229,0.02L254.035,0.032L254.84,0.046L255.645,0.063L256.448,0.082L257.252,0.103L258.054,0.128L258.856,0.154L259.658,0.183L260.458,0.215L261.259,0.25L262.058,0.286L262.857,0.326L263.655,0.367L264.452,0.412L265.249,0.458L266.045,0.508L266.841,0.559L267.636,0.614L268.43,0.67L269.223,0.73L270.016,0.791L270.808,0.855L271.599,0.922L272.39,0.991L273.18,1.063L273.969,1.136L274.758,1.213L275.546,1.292L276.333,1.373L277.119,1.457L277.905,1.543L278.69,1.632L279.474,1.723L280.258,1.816L281.04,1.912L281.822,2.01L282.604,2.111L283.384,2.214L284.164,2.319L284.943,2.427L285.721,2.538L286.499,2.65L287.275,2.765L288.051,2.883L288.826,3.003L289.601,3.125L290.374,3.249L291.147,3.376L291.919,3.506L292.69,3.637L293.461,3.771L294.23,3.908L294.999,4.046L295.767,4.187L296.534,4.331L297.3,4.477L298.066,4.625L298.83,4.775L299.594,4.928L300.357,5.083L301.119,5.24L301.881,5.4L302.641,5.562L303.401,5.726L304.159,5.893L304.917,6.062L305.674,6.233L306.43,6.406L307.186,6.582L307.94,6.76L308.694,6.941L309.446,7.123L310.198,7.308L310.949,7.495L311.699,7.685L312.448,7.876L313.196,8.07L313.943,8.266L314.69,8.465L315.435,8.666L316.18,8.869L316.923,9.074L317.666,9.281L318.408,9.491L319.149,9.703L319.889,9.917L320.628,10.133L321.366,10.351L322.103,10.572L322.839,10.795L323.574,11.02L324.308,11.247L325.041,11.477L325.774,11.709L326.505,11.943L327.235,12.179L327.964,12.417L328.693,12.657L329.42,12.9L330.147,13.145L330.872,13.392L331.596,13.641L332.32,13.892L333.042,14.145L333.763,14.401L334.484,14.659L335.203,14.918L335.921,15.18L336.639,15.444L337.355,15.711L338.07,15.979L338.784,16.249L339.497,16.522L340.21,16.797L340.921,17.074L341.631,17.352L342.34,17.634L343.047,17.917L343.754,18.202L344.46,18.489L345.165,18.779L345.868,19.07L346.571,19.364L347.272,19.659L347.973,19.957L348.672,20.257L349.37,20.559L350.067,20.862L350.763,21.168L351.458,21.476L352.152,21.786L352.844,22.099L353.536,22.413L354.226,22.729L354.916,23.047L355.604,23.367L356.291,23.69L356.977,24.014L357.661,24.34L358.345,24.668L359.028,24.999L359.709,25.331L360.389,25.665L361.068,26.002L361.746,26.34L362.422,26.68L363.098,27.023L363.772,27.367L364.445,27.713L365.117,28.062L365.788,28.412L366.458,28.764L367.126,29.118L367.793,29.474L368.459,29.832L369.124,30.192L369.787,30.554L370.45,30.918L371.111,31.284L371.771,31.652L372.43,32.021L373.087,32.393L373.743,32.767L374.398,33.142L375.052,33.52L375.704,33.899L376.356,34.28L377.006,34.663L377.654,35.048L378.302,35.435L378.948,35.824L379.593,36.215L380.237,36.607L380.879,37.002L381.52,37.398L382.16,37.797L382.799,38.197L383.436,38.599L384.072,39.003L384.707,39.408L385.34,39.816L385.972,40.225L386.603,40.637L387.232,41.05L387.86,41.465L388.487,41.881L389.113,42.3L389.737,42.72L390.36,43.143L390.981,43.567L391.601,43.993L392.22,44.42L392.837,44.85L393.454,45.281L394.068,45.715L394.682,46.149L395.294,46.586L395.904,47.025L396.514,47.465L397.121,47.907L397.728,48.351L398.333,48.797L398.937,49.244L399.539,49.693L400.14,50.144L400.74,50.597L401.338,51.051L401.935,51.508L402.53,51.966L403.124,52.425L403.717,52.887L404.308,53.35L404.897,53.815L405.486,54.282L406.072,54.75L406.658,55.22L407.242,55.692L407.824,56.166L408.405,56.641L408.985,57.118L409.563,57.596L410.14,58.077L410.715,58.559L411.289,59.042L411.861,59.528L412.432,60.015L413.001,60.504L413.569,60.994L414.135,61.486L414.7,61.98L415.263,62.476L415.825,62.973L416.386,63.472L416.944,63.972L417.502,64.474L418.058,64.978L418.612,65.483L419.165,65.99L419.716,66.499L420.266,67.009L420.814,67.521L421.361,68.035L421.906,68.55L422.449,69.066L422.991,69.585L423.532,70.105L424.071,70.626L424.608,71.149L425.144,71.674L425.678,72.201L426.211,72.728L426.742,73.258L427.272,73.789L427.799,74.322L428.326,74.856L428.851,75.392L429.374,75.929L429.895,76.468L430.415,77.009L430.934,77.551L431.45,78.094L431.965,78.639L432.479,79.186L432.991,79.734L433.501,80.284L434.01,80.835L434.517,81.388L435.022,81.942L435.526,82.498L436.028,83.056L436.528,83.614L437.027,84.175L437.524,84.737L438.02,85.3L438.514,85.865L439.006,86.431L439.496,86.999L439.985,87.568L440.472,88.139L440.958,88.711L441.441,89.285L441.923,89.86L442.404,90.437L442.882,91.015L443.359,91.595L443.834,92.176L444.308,92.758L444.78,93.342L445.25,93.928L445.718,94.514L446.185,95.103L446.65,95.692L447.113,96.283L447.575,96.876L448.034,97.47L448.492,98.065L448.949,98.662L449.403,99.26L449.856,99.86L450.307,100.461L450.756,101.063L451.203,101.667L451.649,102.272L452.093,102.879L452.535,103.486L452.975,104.096L453.414,104.706L453.851,105.318L454.285,105.932L454.719,106.546L455.15,107.163L455.58,107.78L456.007,108.399L456.433,109.019L456.857,109.64L457.28,110.263L457.7,110.887L458.119,111.513L458.535,112.14L458.95,112.768L459.363,113.397L459.775,114.028L460.184,114.66L460.592,115.293L460.997,115.928L461.401,116.564L461.803,117.201L462.203,117.84L462.602,118.48L462.998,119.121L463.393,119.763L463.785,120.407L464.176,121.052L464.565,121.698L464.952,122.346L465.337,122.994L465.72,123.644L466.101,124.296L466.48,124.948L466.858,125.602L467.233,126.257L467.607,126.913L467.979,127.57L468.348,128.229L468.716,128.889L469.082,129.55L469.446,130.213L469.808,130.876L470.168,131.541L470.526,132.207L470.882,132.874L471.236,133.542L471.588,134.212L471.938,134.883L472.287,135.555L472.633,136.228L472.977,136.902L473.32,137.578L473.66,138.254L473.998,138.932L474.335,139.611L474.669,140.291L475.001,140.972L475.332,141.655L475.66,142.339L475.986,143.023L476.31,143.709L476.633,144.396L476.953,145.084L477.271,145.774L477.587,146.464L477.901,147.156L478.214,147.848L478.524,148.542L478.832,149.237L479.138,149.933L479.441,150.63L479.743,151.328L480.043,152.027L480.341,152.728L480.636,153.429L480.93,154.132L481.221,154.835L481.511,155.54L481.798,156.246L482.083,156.953L482.366,157.66L482.648,158.369L482.926,159.079L483.203,159.79L483.478,160.503L483.751,161.216L484.021,161.93L484.289,162.645L484.556,163.361L484.82,164.079L485.082,164.797L485.341,165.516L485.599,166.237L485.855,166.958L486.108,167.68L486.359,168.404L486.608,169.128L486.855,169.853L487.1,170.58L487.343,171.307L487.583,172.036L487.821,172.765L488.057,173.495L488.291,174.226L488.523,174.959L488.753,175.692L488.98,176.426L489.205,177.161L489.428,177.897L489.649,178.634L489.867,179.372L490.083,180.111L490.297,180.851L490.509,181.592L490.719,182.334L490.926,183.077L491.131,183.82L491.334,184.565L491.535,185.31L491.734,186.057L491.93,186.804L492.124,187.552L492.315,188.301L492.505,189.051L492.692,189.802L492.877,190.554L493.059,191.306L493.24,192.06L493.418,192.814L493.594,193.57L493.767,194.326L493.938,195.083L494.107,195.841L494.274,196.599L494.438,197.359L494.6,198.119L494.76,198.881L494.917,199.643L495.072,200.406L495.225,201.17L495.375,201.934L495.523,202.7L495.669,203.466L495.813,204.233L495.954,205.001L496.092,205.77L496.229,206.539L496.363,207.31L496.494,208.081L496.624,208.853L496.751,209.626L496.875,210.399L496.997,211.174L497.117,211.949L497.235,212.725L497.35,213.501L497.462,214.279L497.573,215.057L497.681,215.836L497.786,216.616L497.889,217.396L497.99,218.178L498.088,218.96L498.184,219.742L498.277,220.526L498.368,221.31L498.457,222.095L498.543,222.881L498.627,223.667L498.708,224.454L498.787,225.242L498.864,226.031L498.937,226.82L499.009,227.61L499.078,228.401L499.145,229.192L499.209,229.984L499.27,230.777L499.33,231.57L499.386,232.364L499.441,233.159L499.492,233.955L499.542,234.751L499.588,235.548L499.633,236.345L499.674,237.143L499.714,237.942L499.75,238.741L499.785,239.542L499.817,240.342L499.846,241.144L499.872,241.946L499.897,242.748L499.918,243.552L499.937,244.355L499.954,245.16L499.968,245.965L499.98,246.771L499.988,247.577L499.995,248.384L499.999,249.192L500,250L499.999,250.808L499.995,251.616L499.988,252.423L499.98,253.229L499.968,254.035L499.954,254.84L499.937,255.645L499.918,256.448L499.897,257.252L499.872,258.054L499.846,258.856L499.817,259.658L499.785,260.458L499.75,261.259L499.714,262.058L499.674,262.857L499.633,263.655L499.588,264.452L499.542,265.249L499.492,266.045L499.441,266.841L499.386,267.636L499.33,268.43L499.27,269.223L499.209,270.016L499.145,270.808L499.078,271.599L499.009,272.39L498.937,273.18L498.864,273.969L498.787,274.758L498.708,275.546L498.627,276.333L498.543,277.119L498.457,277.905L498.368,278.69L498.277,279.474L498.184,280.258L498.088,281.04L497.99,281.822L497.889,282.604L497.786,283.384L497.681,284.164L497.573,284.943L497.462,285.721L497.35,286.499L497.235,287.275L497.117,288.051L496.997,288.826L496.875,289.601L496.751,290.374L496.624,291.147L496.494,291.919L496.363,292.69L496.229,293.461L496.092,294.23L495.954,294.999L495.813,295.767L495.669,296.534L495.523,297.3L495.375,298.066L495.225,298.83L495.072,299.594L494.917,300.357L494.76,301.119L494.6,301.881L494.438,302.641L494.274,303.401L494.107,304.159L493.938,304.917L493.767,305.674L493.594,306.43L493.418,307.186L493.24,307.94L493.059,308.694L492.877,309.446L492.692,310.198L492.505,310.949L492.315,311.699L492.124,312.448L491.93,313.196L491.734,313.943L491.535,314.69L491.334,315.435L491.131,316.18L490.926,316.923L490.719,317.666L490.509,318.408L490.297,319.149L490.083,319.889L489.867,320.628L489.649,321.366L489.428,322.103L489.205,322.839L488.98,323.574L488.753,324.308L488.523,325.041L488.291,325.774L488.057,326.505L487.821,327.235L487.583,327.964L487.343,328.693L487.1,329.42L486.855,330.147L486.608,330.872L486.359,331.596L486.108,332.32L485.855,333.042L485.599,333.763L485.341,334.484L485.082,335.203L484.82,335.921L484.556,336.639L484.289,337.355L484.021,338.07L483.751,338.784L483.478,339.497L483.203,340.21L482.926,340.921L482.648,341.631L482.366,342.34L482.083,343.047L481.798,343.754L481.511,344.46L481.221,345.165L480.93,345.868L480.636,346.571L480.341,347.272L480.043,347.973L479.743,348.672L479.441,349.37L479.138,350.067L478.832,350.763L478.524,351.458L478.214,352.152L477.901,352.844L477.587,353.536L477.271,354.226L476.953,354.916L476.633,355.604L476.31,356.291L475.986,356.977L475.66,357.661L475.332,358.345L475.001,359.028L474.669,359.709L474.335,360.389L473.998,361.068L473.66,361.746L473.32,362.422L472.977,363.098L472.633,363.772L472.287,364.445L471.938,365.117L471.588,365.788L471.236,366.458L470.882,367.126L470.526,367.793L470.168,368.459L469.808,369.124L469.446,369.787L469.082,370.45L468.716,371.111L468.348,371.771L467.979,372.43L467.607,373.087L467.233,373.743L466.858,374.398L466.48,375.052L466.101,375.704L465.72,376.356L465.337,377.006L464.952,377.654L464.565,378.302L464.176,378.948L463.785,379.593L463.393,380.237L462.998,380.879L462.602,381.52L462.203,382.16L461.803,382.799L461.401,383.436L460.997,384.072L460.592,384.707L460.184,385.34L459.775,385.972L459.363,386.603L458.95,387.232L458.535,387.86L458.119,388.487L457.7,389.113L457.28,389.737L456.857,390.36L456.433,390.981L456.007,391.601L455.58,392.22L455.15,392.837L454.719,393.454L454.285,394.068L453.851,394.682L453.414,395.294L452.975,395.904L452.535,396.514L452.093,397.121L451.649,397.728L451.203,398.333L450.756,398.937L450.307,399.539L449.856,400.14L449.403,400.74L448.949,401.338L448.492,401.935L448.034,402.53L447.575,403.124L447.113,403.717L446.65,404.308L446.185,404.897L445.718,405.486L445.25,406.072L444.78,406.658L444.308,407.242L443.834,407.824L443.359,408.405L442.882,408.985L442.404,409.563L441.923,410.14L441.441,410.715L440.958,411.289L440.472,411.861L439.985,412.432L439.496,413.001L439.006,413.569L438.514,414.135L438.02,414.7L437.524,415.263L437.027,415.825L436.528,416.386L436.028,416.944L435.526,417.502L435.022,418.058L434.517,418.612L434.01,419.165L433.501,419.716L432.991,420.266L432.479,420.814L431.965,421.361L431.45,421.906L430.934,422.449L430.415,422.991L429.895,423.532L429.374,424.071L428.851,424.608L428.326,425.144L427.799,425.678L427.272,426.211L426.742,426.742L426.211,427.272L425.678,427.799L425.144,428.326L424.608,428.851L424.071,429.374L423.532,429.895L422.991,430.415L422.449,430.934L421.906,431.45L421.361,431.965L420.814,432.479L420.266,432.991L419.716,433.501L419.165,434.01L418.612,434.517L418.058,435.022L417.502,435.526L416.944,436.028L416.386,436.528L415.825,437.027L415.263,437.524L414.7,438.02L414.135,438.514L413.569,439.006L413.001,439.496L412.432,439.985L411.861,440.472L411.289,440.958L410.715,441.441L410.14,441.923L409.563,442.404L408.985,442.882L408.405,443.359L407.824,443.834L407.242,444.308L406.658,444.78L406.072,445.25L405.486,445.718L404.897,446.185L404.308,446.65L403.717,447.113L403.124,447.575L402.53,448.034L401.935,448.492L401.338,448.949L400.74,449.403L400.14,449.856L399.539,450.307L398.937,450.756L398.333,451.203L397.728,451.649L397.121,452.093L396.514,452.535L395.904,452.975L395.294,453.414L394.682,453.851L394.068,454.285L393.454,454.719L392.837,455.15L392.22,455.58L391.601,456.007L390.981,456.433L390.36,456.857L389.737,457.28L389.113,457.7L388.487,458.119L387.86,458.535L387.232,458.95L386.603,459.363L385.972,459.775L385.34,460.184L384.707,460.592L384.072,460.997L383.436,461.401L382.799,461.803L382.16,462.203L381.52,462.602L380.879,462.998L380.237,463.393L379.593,463.785L378.948,464.176L378.302,464.565L377.654,464.952L377.006,465.337L376.356,465.72L375.704,466.101L375.052,466.48L374.398,466.858L373.743,467.233L373.087,467.607L372.43,467.979L371.771,468.348L371.111,468.716L370.45,469.082L369.787,469.446L369.124,469.808L368.459,470.168L367.793,470.526L367.126,470.882L366.458,471.236L365.788,471.588L365.117,471.938L364.445,472.287L363.772,472.633L363.098,472.977L362.422,473.32L361.746,473.66L361.068,473.998L360.389,474.335L359.709,474.669L359.028,475.001L358.345,475.332L357.661,475.66L356.977,475.986L356.291,476.31L355.604,476.633L354.916,476.953L354.226,477.271L353.536,477.587L352.844,477.901L352.152,478.214L351.458,478.524L350.763,478.832L350.067,479.138L349.37,479.441L348.672,479.743L347.973,480.043L347.272,480.341L346.571,480.636L345.868,480.93L345.165,481.221L344.46,481.511L343.754,481.798L343.047,482.083L342.34,482.366L341.631,482.648L340.921,482.926L340.21,483.203L339.497,483.478L338.784,483.751L338.07,484.021L337.355,484.289L336.639,484.556L335.921,484.82L335.203,485.082L334.484,485.341L333.763,485.599L333.042,485.855L332.32,486.108L331.596,486.359L330.872,486.608L330.147,486.855L329.42,487.1L328.693,487.343L327.964,487.583L327.235,487.821L326.505,488.057L325.774,488.291L325.041,488.523L324.308,488.753L323.574,488.98L322.839,489.205L322.103,489.428L321.366,489.649L320.628,489.867L319.889,490.083L319.149,490.297L318.408,490.509L317.666,490.719L316.923,490.926L316.18,491.131L315.435,491.334L314.69,491.535L313.943,491.734L313.196,491.93L312.448,492.124L311.699,492.315L310.949,492.505L310.198,492.692L309.446,492.877L308.694,493.059L307.94,493.24L307.186,493.418L306.43,493.594L305.674,493.767L304.917,493.938L304.159,494.107L303.401,494.274L302.641,494.438L301.881,494.6L301.119,494.76L300.357,494.917L299.594,495.072L298.83,495.225L298.066,495.375L297.3,495.523L296.534,495.669L295.767,495.813L294.999,495.954L294.23,496.092L293.461,496.229L292.69,496.363L291.919,496.494L291.147,496.624L290.374,496.751L289.601,496.875L288.826,496.997L288.051,497.117L287.275,497.235L286.499,497.35L285.721,497.462L284.943,497.573L284.164,497.681L283.384,497.786L282.604,497.889L281.822,497.99L281.04,498.088L280.258,498.184L279.474,498.277L278.69,498.368L277.905,498.457L277.119,498.543L276.333,498.627L275.546,498.708L274.758,498.787L273.969,498.864L273.18,498.937L272.39,499.009L271.599,499.078L270.808,499.145L270.016,499.209L269.223,499.27L268.43,499.33L267.636,499.386L266.841,499.441L266.045,499.492L265.249,499.542L264.452,499.588L263.655,499.633L262.857,499.674L262.058,499.714L261.259,499.75L260.458,499.785L259.658,499.817L258.856,499.846L258.054,499.872L257.252,499.897L256.448,499.918L255.645,499.937L254.84,499.954L254.035,499.968L253.229,499.98L252.423,499.988L251.616,499.995L250.808,499.999L250,500L249.192,499.999L248.384,499.995L247.577,499.988L246.771,499.98L245.965,499.968L245.16,499.954L244.355,499.937L243.552,499.918L242.748,499.897L241.946,499.872L241.144,499.846L240.342,499.817L239.542,499.785L238.741,499.75L237.942,499.714L237.143,499.674L236.345,499.633L235.548,499.588L234.751,499.542L233.955,499.492L233.159,499.441L232.364,499.386L231.57,499.33L230.777,499.27L229.984,499.209L229.192,499.145L228.401,499.078L227.61,499.009L226.82,498.937L226.031,498.864L225.242,498.787L224.454,498.708L223.667,498.627L222.881,498.543L222.095,498.457L221.31,498.368L220.526,498.277L219.742,498.184L218.96,498.088L218.178,497.99L217.396,497.889L216.616,497.786L215.836,497.681L215.057,497.573L214.279,497.462L213.501,497.35L212.725,497.235L211.949,497.117L211.174,496.997L210.399,496.875L209.626,496.751L208.853,496.624L208.081,496.494L207.31,496.363L206.539,496.229L205.77,496.092L205.001,495.954L204.233,495.813L203.466,495.669L202.7,495.523L201.934,495.375L201.17,495.225L200.406,495.072L199.643,494.917L198.881,494.76L198.119,494.6L197.359,494.438L196.599,494.274L195.841,494.107L195.083,493.938L194.326,493.767L193.57,493.594L192.814,493.418L192.06,493.24L191.306,493.059L190.554,492.877L189.802,492.692L189.051,492.505L188.301,492.315L187.552,492.124L186.804,491.93L186.057,491.734L185.31,491.535L184.565,491.334L183.82,491.131L183.077,490.926L182.334,490.719L181.592,490.509L180.851,490.297L180.111,490.083L179.372,489.867L178.634,489.649L177.897,489.428L177.161,489.205L176.426,488.98L175.692,488.753L174.959,488.523L174.226,488.291L173.495,488.057L172.765,487.821L172.036,487.583L171.307,487.343L170.58,487.1L169.853,486.855L169.128,486.608L168.404,486.359L167.68,486.108L166.958,485.855L166.237,485.599L165.516,485.341L164.797,485.082L164.079,484.82L163.361,484.556L162.645,484.289L161.93,484.021L161.216,483.751L160.503,483.478L159.79,483.203L159.079,482.926L158.369,482.648L157.66,482.366L156.953,482.083L156.246,481.798L155.54,481.511L154.835,481.221L154.132,480.93L153.429,480.636L152.728,480.341L152.027,480.043L151.328,479.743L150.63,479.441L149.933,479.138L149.237,478.832L148.542,478.524L147.848,478.214L147.156,477.901L146.464,477.587L145.774,477.271L145.084,476.953L144.396,476.633L143.709,476.31L143.023,475.986L142.339,475.66L141.655,475.332L140.972,475.001L140.291,474.669L139.611,474.335L138.932,473.998L138.254,473.66L137.578,473.32L136.902,472.977L136.228,472.633L135.555,472.287L134.883,471.938L134.212,471.588L133.542,471.236L132.874,470.882L132.207,470.526L131.541,470.168L130.876,469.808L130.213,469.446L129.55,469.082L128.889,468.716L128.229,468.348L127.57,467.979L126.913,467.607L126.257,467.233L125.602,466.858L124.948,466.48L124.296,466.101L123.644,465.72L122.994,465.337L122.346,464.952L121.698,464.565L121.052,464.176L120.407,463.785L119.763,463.393L119.121,462.998L118.48,462.602L117.84,462.203L117.201,461.803L116.564,461.401L115.928,460.997L115.293,460.592L114.66,460.184L114.028,459.775L113.397,459.363L112.768,458.95L112.14,458.535L111.513,458.119L110.887,457.7L110.263,457.28L109.64,456.857L109.019,456.433L108.399,456.007L107.78,455.58L107.163,455.15L106.546,454.719L105.932,454.285L105.318,453.851L104.706,453.414L104.096,452.975L103.486,452.535L102.879,452.093L102.272,451.649L101.667,451.203L101.063,450.756L100.461,450.307L99.86,449.856L99.26,449.403L98.662,448.949L98.065,448.492L97.47,448.034L96.876,447.575L96.283,447.113L95.692,446.65L95.103,446.185L94.514,445.718L93.928,445.25L93.342,444.78L92.758,444.308L92.176,443.834L91.595,443.359L91.015,442.882L90.437,442.404L89.86,441.923L89.285,441.441L88.711,440.958L88.139,440.472L87.568,439.985L86.999,439.496L86.431,439.006L85.865,438.514L85.3,438.02L84.737,437.524L84.175,437.027L83.614,436.528L83.056,436.028L82.498,435.526L81.942,435.022L81.388,434.517L80.835,434.01L80.284,433.501L79.734,432.991L79.186,432.479L78.639,431.965L78.094,431.45L77.551,430.934L77.009,430.415L76.468,429.895L75.929,429.374L75.392,428.851L74.856,428.326L74.322,427.799L73.789,427.272L73.258,426.742L72.728,426.211L72.201,425.678L71.674,425.144L71.149,424.608L70.626,424.071L70.105,423.532L69.585,422.991L69.066,422.449L68.55,421.906L68.035,421.361L67.521,420.814L67.009,420.266L66.499,419.716L65.99,419.165L65.483,418.612L64.978,418.058L64.474,417.502L63.972,416.944L63.472,416.386L62.973,415.825L62.476,415.263L61.98,414.7L61.486,414.135L60.994,413.569L60.504,413.001L60.015,412.432L59.528,411.861L59.042,411.289L58.559,410.715L58.077,410.14L57.596,409.563L57.118,408.985L56.641,408.405L56.166,407.824L55.692,407.242L55.22,406.658L54.75,406.072L54.282,405.486L53.815,404.897L53.35,404.308L52.887,403.717L52.425,403.124L51.966,402.53L51.508,401.935L51.051,401.338L50.597,400.74L50.144,400.14L49.693,399.539L49.244,398.937L48.797,398.333L48.351,397.728L47.907,397.121L47.465,396.514L47.025,395.904L46.586,395.294L46.149,394.682L45.715,394.068L45.281,393.454L44.85,392.837L44.42,392.22L43.993,391.601L43.567,390.981L43.143,390.36L42.72,389.737L42.3,389.113L41.881,388.487L41.465,387.86L41.05,387.232L40.637,386.603L40.225,385.972L39.816,385.34L39.408,384.707L39.003,384.072L38.599,383.436L38.197,382.799L37.797,382.16L37.398,381.52L37.002,380.879L36.607,380.237L36.215,379.593L35.824,378.948L35.435,378.302L35.048,377.654L34.663,377.006L34.28,376.356L33.899,375.704L33.52,375.052L33.142,374.398L32.767,373.743L32.393,373.087L32.021,372.43L31.652,371.771L31.284,371.111L30.918,370.45L30.554,369.787L30.192,369.124L29.832,368.459L29.474,367.793L29.118,367.126L28.764,366.458L28.412,365.788L28.062,365.117L27.713,364.445L27.367,363.772L27.023,363.098L26.68,362.422L26.34,361.746L26.002,361.068L25.665,360.389L25.331,359.709L24.999,359.028L24.668,358.345L24.34,357.661L24.014,356.977L23.69,356.291L23.367,355.604L23.047,354.916L22.729,354.226L22.413,353.536L22.099,352.844L21.786,352.152L21.476,351.458L21.168,350.763L20.862,350.067L20.559,349.37L20.257,348.672L19.957,347.973L19.659,347.272L19.364,346.571L19.07,345.868L18.779,345.165L18.489,344.46L18.202,343.754L17.917,343.047L17.634,342.34L17.352,341.631L17.074,340.921L16.797,340.21L16.522,339.497L16.249,338.784L15.979,338.07L15.711,337.355L15.444,336.639L15.18,335.921L14.918,335.203L14.659,334.484L14.401,333.763L14.145,333.042L13.892,332.32L13.641,331.596L13.392,330.872L13.145,330.147L12.9,329.42L12.657,328.693L12.417,327.964L12.179,327.235L11.943,326.505L11.709,325.774L11.477,325.041L11.247,324.308L11.02,323.574L10.795,322.839L10.572,322.103L10.351,321.366L10.133,320.628L9.917,319.889L9.703,319.149L9.491,318.408L9.281,317.666L9.074,316.923L8.869,316.18L8.666,315.435L8.465,314.69L8.266,313.943L8.07,313.196L7.876,312.448L7.685,311.699L7.495,310.949L7.308,310.198L7.123,309.446L6.941,308.694L6.76,307.94L6.582,307.186L6.406,306.43L6.233,305.674L6.062,304.917L5.893,304.159L5.726,303.401L5.562,302.641L5.4,301.881L5.24,301.119L5.083,300.357L4.928,299.594L4.775,298.83L4.625,298.066L4.477,297.3L4.331,296.534L4.187,295.767L4.046,294.999L3.908,294.23L3.771,293.461L3.637,292.69L3.506,291.919L3.376,291.147L3.249,290.374L3.125,289.601L3.003,288.826L2.883,288.051L2.765,287.275L2.65,286.499L2.538,285.721L2.427,284.943L2.319,284.164L2.214,283.384L2.111,282.604L2.01,281.822L1.912,281.04L1.816,280.258L1.723,279.474L1.632,278.69L1.543,277.905L1.457,277.119L1.373,276.333L1.292,275.546L1.213,274.758L1.136,273.969L1.063,273.18L0.991,272.39L0.922,271.599L0.855,270.808L0.791,270.016L0.73,269.223L0.67,268.43L0.614,267.636L0.559,266.841L0.508,266.045L0.458,265.249L0.412,264.452L0.367,263.655L0.326,262.857L0.286,262.058L0.25,261.259L0.215,260.458L0.183,259.658L0.154,258.856L0.128,258.054L0.103,257.252L0.082,256.448L0.063,255.645L0.046,254.84L0.032,254.035L0.02,253.229L0.012,252.423L0.005,251.616L0.001,250.808L0,250L0.001,249.192L0.005,248.384L0.012,247.577L0.02,246.771L0.032,245.965L0.046,245.16L0.063,244.355L0.082,243.552L0.103,242.748L0.128,241.946L0.154,241.144L0.183,240.342L0.215,239.542L0.25,238.741L0.286,237.942L0.326,237.143L0.367,236.345L0.412,235.548L0.458,234.751L0.508,233.955L0.559,233.159L0.614,232.364L0.67,231.57L0.73,230.777L0.791,229.984L0.855,229.192L0.922,228.401L0.991,227.61L1.063,226.82L1.136,226.031L1.213,225.242L1.292,224.454L1.373,223.667L1.457,222.881L1.543,222.095L1.632,221.31L1.723,220.526L1.816,219.742L1.912,218.96L2.01,218.178L2.111,217.396L2.214,216.616L2.319,215.836L2.427,215.057L2.538,214.279L2.65,213.501L2.765,212.725L2.883,211.949L3.003,211.174L3.125,210.399L3.249,209.626L3.376,208.853L3.506,208.081L3.637,207.31L3.771,206.539L3.908,205.77L4.046,205.001L4.187,204.233L4.331,203.466L4.477,202.7L4.625,201.934L4.775,201.17L4.928,200.406L5.083,199.643L5.24,198.881L5.4,198.119L5.562,197.359L5.726,196.599L5.893,195.841L6.062,195.083L6.233,194.326L6.406,193.57L6.582,192.814L6.76,192.06L6.941,191.306L7.123,190.554L7.308,189.802L7.495,189.051L7.685,188.301L7.876,187.552L8.07,186.804L8.266,186.057L8.465,185.31L8.666,184.565L8.869,183.82L9.074,183.077L9.281,182.334L9.491,181.592L9.703,180.851L9.917,180.111L10.133,179.372L10.351,178.634L10.572,177.897L10.795,177.161L11.02,176.426L11.247,175.692L11.477,174.959L11.709,174.226L11.943,173.495L12.179,172.765L12.417,172.036L12.657,171.307L12.9,170.58L13.145,169.853L13.392,169.128L13.641,168.404L13.892,167.68L14.145,166.958L14.401,166.237L14.659,165.516L14.918,164.797L15.18,164.079L15.444,163.361L15.711,162.645L15.979,161.93L16.249,161.216L16.522,160.503L16.797,159.79L17.074,159.079L17.352,158.369L17.634,157.66L17.917,156.953L18.202,156.246L18.489,155.54L18.779,154.835L19.07,154.132L19.364,153.429L19.659,152.728L19.957,152.027L20.257,151.328L20.559,150.63L20.862,149.933L21.168,149.237L21.476,148.542L21.786,147.848L22.099,147.156L22.413,146.464L22.729,145.774L23.047,145.084L23.367,144.396L23.69,143.709L24.014,143.023L24.34,142.339L24.668,141.655L24.999,140.972L25.331,140.291L25.665,139.611L26.002,138.932L26.34,138.254L26.68,137.578L27.023,136.902L27.367,136.228L27.713,135.555L28.062,134.883L28.412,134.212L28.764,133.542L29.118,132.874L29.474,132.207L29.832,131.541L30.192,130.876L30.554,130.213L30.918,129.55L31.284,128.889L31.652,128.229L32.021,127.57L32.393,126.913L32.767,126.257L33.142,125.602L33.52,124.948L33.899,124.296L34.28,123.644L34.663,122.994L35.048,122.346L35.435,121.698L35.824,121.052L36.215,120.407L36.607,119.763L37.002,119.121L37.398,118.48L37.797,117.84L38.197,117.201L38.599,116.564L39.003,115.928L39.408,115.293L39.816,114.66L40.225,114.028L40.637,113.397L41.05,112.768L41.465,112.14L41.881,111.513L42.3,110.887L42.72,110.263L43.143,109.64L43.567,109.019L43.993,108.399L44.42,107.78L44.85,107.163L45.281,106.546L45.715,105.932L46.149,105.318L46.586,104.706L47.025,104.096L47.465,103.486L47.907,102.879L48.351,102.272L48.797,101.667L49.244,101.063L49.693,100.461L50.144,99.86L50.597,99.26L51.051,98.662L51.508,98.065L51.966,97.47L52.425,96.876L52.887,96.283L53.35,95.692L53.815,95.103L54.282,94.514L54.75,93.928L55.22,93.342L55.692,92.758L56.166,92.176L56.641,91.595L57.118,91.015L57.596,90.437L58.077,89.86L58.559,89.285L59.042,88.711L59.528,88.139L60.015,87.568L60.504,86.999L60.994,86.431L61.486,85.865L61.98,85.3L62.476,84.737L62.973,84.175L63.472,83.614L63.972,83.056L64.474,82.498L64.978,81.942L65.483,81.388L65.99,80.835L66.499,80.284L67.009,79.734L67.521,79.186L68.035,78.639L68.55,78.094L69.066,77.551L69.585,77.009L70.105,76.468L70.626,75.929L71.149,75.392L71.674,74.856L72.201,74.322L72.728,73.789L73.258,73.258L73.789,72.728L74.322,72.201L74.856,71.674L75.392,71.149L75.929,70.626L76.468,70.105L77.009,69.585L77.551,69.066L78.094,68.55L78.639,68.035L79.186,67.521L79.734,67.009L80.284,66.499L80.835,65.99L81.388,65.483L81.942,64.978L82.498,64.474L83.056,63.972L83.614,63.472L84.175,62.973L84.737,62.476L85.3,61.98L85.865,61.486L86.431,60.994L86.999,60.504L87.568,60.015L88.139,59.528L88.711,59.042L89.285,58.559L89.86,58.077L90.437,57.596L91.015,57.118L91.595,56.641L92.176,56.166L92.758,55.692L93.342,55.22L93.928,54.75L94.514,54.282L95.103,53.815L95.692,53.35L96.283,52.887L96.876,52.425L97.47,51.966L98.065,51.508L98.662,51.051L99.26,50.597L99.86,50.144L100.461,49.693L101.063,49.244L101.667,48.797L102.272,48.351L102.879,47.907L103.486,47.465L104.096,47.025L104.706,46.586L105.318,46.149L105.932,45.715L106.546,45.281L107.163,44.85L107.78,44.42L108.399,43.993L109.019,43.567L109.64,43.143L110.263,42.72L110.887,42.3L111.513,41.881L112.14,41.465L112.768,41.05L113.397,40.637L114.028,40.225L114.66,39.816L115.293,39.408L115.928,39.003L116.564,38.599L117.201,38.197L117.84,37.797L118.48,37.398L119.121,37.002L119.763,36.607L120.407,36.215L121.052,35.824L121.698,35.435L122.346,35.048L122.994,34.663L123.644,34.28L124.296,33.899L124.948,33.52L125.602,33.142L126.257,32.767L126.913,32.393L127.57,32.021L128.229,31.652L128.889,31.284L129.55,30.918L130.213,30.554L130.876,30.192L131.541,29.832L132.207,29.474L132.874,29.118L133.542,28.764L134.212,28.412L134.883,28.062L135.555,27.713L136.228,27.367L136.902,27.023L137.578,26.68L138.254,26.34L138.932,26.002L139.611,25.665L140.291,25.331L140.972,24.999L141.655,24.668L142.339,24.34L143.023,24.014L143.709,23.69L144.396,23.367L145.084,23.047L145.774,22.729L146.464,22.413L147.156,22.099L147.848,21.786L148.542,21.476L149.237,21.168L149.933,20.862L150.63,20.559L151.328,20.257L152.027,19.957L152.728,19.659L153.429,19.364L154.132,19.07L154.835,18.779L155.54,18.489L156.246,18.202L156.953,17.917L157.66,17.634L158.369,17.352L159.079,17.074L159.79,16.797L160.503,16.522L161.216,16.249L161.93,15.979L162.645,15.711L163.361,15.444L164.079,15.18L164.797,14.918L165.516,14.659L166.237,14.401L166.958,14.145L167.68,13.892L168.404,13.641L169.128,13.392L169.853,13.145L170.58,12.9L171.307,12.657L172.036,12.417L172.765,12.179L173.495,11.943L174.226,11.709L174.959,11.477L175.692,11.247L176.426,11.02L177.161,10.795L177.897,10.572L178.634,10.351L179.372,10.133L180.111,9.917L180.851,9.703L181.592,9.491L182.334,9.281L183.077,9.074L183.82,8.869L184.565,8.666L185.31,8.465L186.057,8.266L186.804,8.07L187.552,7.876L188.301,7.685L189.051,7.495L189.802,7.308L190.554,7.123L191.306,6.941L192.06,6.76L192.814,6.582L193.57,6.406L194.326,6.233L195.083,6.062L195.841,5.893L196.599,5.726L197.359,5.562L198.119,5.4L198.881,5.24L199.643,5.083L200.406,4.928L201.17,4.775L201.934,4.625L202.7,4.477L203.466,4.331L204.233,4.187L205.001,4.046L205.77,3.908L206.539,3.771L207.31,3.637L208.081,3.506L208.853,3.376L209.626,3.249L210.399,3.125L211.174,3.003L211.949,2.883L212.725,2.765L213.501,2.65L214.279,2.538L215.057,2.427L215.836,2.319L216.616,2.214L217.396,2.111L218.178,2.01L218.96,1.912L219.742,1.816L220.526,1.723L221.31,1.632L222.095,1.543L222.881,1.457L223.667,1.373L224.454,1.292L225.242,1.213L226.031,1.136L226.82,1.063L227.61,0.991L228.401,0.922L229.192,0.855L229.984,0.791L230.777,0.73L231.57,0.67L232.364,0.614L233.159,0.559L233.955,0.508L234.751,0.458L235.548,0.412L236.345,0.367L237.143,0.326L237.942,0.286L238.741,0.25L239.542,0.215L240.342,0.183L241.144,0.154L241.946,0.128L242.748,0.103L243.552,0.082L244.355,0.063L245.16,0.046L245.965,0.032L246.771,0.02L247.577,0.012L248.384,0.005L249.192,0.001L250,0L250.808,0.001ZM249.271,24.89L248.542,24.894L247.814,24.899L247.087,24.907L246.36,24.918L245.634,24.93L244.908,24.945L244.183,24.963L243.458,24.982L242.735,25.004L242.011,25.028L241.289,25.054L240.567,25.083L239.846,25.114L239.125,25.147L238.405,25.182L237.686,25.22L236.967,25.26L236.249,25.302L235.531,25.347L234.814,25.393L234.098,25.442L233.382,25.493L232.668,25.547L231.953,25.602L231.24,25.66L230.527,25.72L229.814,25.782L229.103,25.846L228.392,25.913L227.682,25.982L226.972,26.053L226.263,26.126L225.555,26.202L224.847,26.279L224.14,26.359L223.434,26.441L222.729,26.525L222.024,26.611L221.32,26.7L220.617,26.791L219.914,26.883L219.212,26.978L218.51,27.075L217.81,27.175L217.11,27.276L216.411,27.38L215.713,27.485L215.015,27.593L214.318,27.703L213.622,27.815L212.926,27.93L212.231,28.046L211.537,28.165L210.844,28.285L210.151,28.408L209.459,28.533L208.768,28.66L208.078,28.789L207.388,28.92L206.7,29.053L206.012,29.189L205.324,29.326L204.638,29.465L203.952,29.607L203.267,29.751L202.583,29.897L201.899,30.044L201.217,30.194L200.535,30.346L199.854,30.5L199.173,30.656L198.494,30.814L197.815,30.975L197.137,31.137L196.46,31.301L195.784,31.468L195.108,31.636L194.433,31.806L193.759,31.979L193.086,32.153L192.414,32.33L191.743,32.508L191.072,32.689L190.402,32.871L189.733,33.056L189.065,33.242L188.398,33.431L187.731,33.622L187.066,33.814L186.401,34.009L185.737,34.205L185.074,34.404L184.412,34.604L183.751,34.807L183.09,35.011L182.43,35.218L181.772,35.426L181.114,35.637L180.457,35.849L179.801,36.063L179.145,36.28L178.491,36.498L177.838,36.718L177.185,36.94L176.533,37.164L175.883,37.39L175.233,37.618L174.584,37.848L173.936,38.08L173.288,38.314L172.642,38.55L171.997,38.787L171.352,39.027L170.709,39.268L170.066,39.511L169.425,39.757L168.784,40.004L168.144,40.253L167.505,40.504L166.868,40.757L166.231,41.012L165.595,41.268L164.96,41.527L164.326,41.787L163.692,42.049L163.06,42.314L162.429,42.58L161.799,42.847L161.17,43.117L160.541,43.389L159.914,43.662L159.288,43.938L158.662,44.215L158.038,44.494L157.415,44.775L156.792,45.057L156.171,45.342L155.551,45.628L154.932,45.916L154.313,46.207L153.696,46.498L153.08,46.792L152.464,47.088L151.85,47.385L151.237,47.684L150.625,47.985L150.013,48.288L149.403,48.592L148.794,48.898L148.186,49.207L147.579,49.517L146.973,49.828L146.369,50.142L145.765,50.457L145.162,50.774L144.56,51.093L143.96,51.413L143.36,51.736L142.762,52.06L142.164,52.386L141.568,52.713L140.973,53.043L140.379,53.374L139.786,53.707L139.194,54.041L138.603,54.378L138.013,54.716L137.424,55.056L136.837,55.397L136.25,55.74L135.665,56.085L135.081,56.432L134.498,56.781L133.916,57.131L133.335,57.483L132.756,57.836L132.177,58.191L131.6,58.548L131.024,58.907L130.448,59.267L129.875,59.629L129.302,59.993L128.73,60.358L128.16,60.726L127.59,61.094L127.022,61.465L126.455,61.837L125.89,62.211L125.325,62.586L124.762,62.963L124.2,63.342L123.639,63.722L123.079,64.104L122.52,64.488L121.963,64.873L121.407,65.26L120.852,65.648L120.298,66.039L119.745,66.43L119.194,66.824L118.644,67.219L118.095,67.616L117.547,68.014L117.001,68.414L116.456,68.815L115.912,69.218L115.369,69.623L114.828,70.029L114.288,70.437L113.749,70.847L113.211,71.258L112.675,71.67L112.14,72.084L111.606,72.5L111.073,72.918L110.542,73.337L110.012,73.757L109.483,74.179L108.956,74.603L108.429,75.028L107.905,75.454L107.381,75.883L106.859,76.312L106.338,76.744L105.818,77.177L105.3,77.611L104.783,78.047L104.267,78.484L103.753,78.923L103.24,79.364L102.728,79.806L102.218,80.249L101.709,80.694L101.201,81.14L100.695,81.588L100.19,82.038L99.686,82.489L99.184,82.941L98.683,83.395L98.184,83.851L97.685,84.308L97.189,84.766L96.693,85.226L96.199,85.687L95.707,86.15L95.215,86.614L94.726,87.08L94.237,87.547L93.75,88.015L93.264,88.485L92.78,88.957L92.297,89.43L91.816,89.904L91.336,90.38L90.857,90.857L90.38,91.336L89.904,91.816L89.43,92.297L88.957,92.78L88.485,93.264L88.015,93.75L87.547,94.237L87.08,94.726L86.614,95.215L86.15,95.707L85.687,96.199L85.226,96.693L84.766,97.189L84.308,97.685L83.851,98.184L83.395,98.683L82.941,99.184L82.489,99.686L82.038,100.19L81.588,100.695L81.14,101.201L80.694,101.709L80.249,102.218L79.806,102.728L79.364,103.24L78.923,103.753L78.484,104.267L78.047,104.783L77.611,105.3L77.177,105.818L76.744,106.338L76.312,106.859L75.883,107.381L75.454,107.905L75.028,108.429L74.603,108.956L74.179,109.483L73.757,110.012L73.337,110.542L72.918,111.073L72.5,111.606L72.084,112.14L71.67,112.675L71.258,113.211L70.847,113.749L70.437,114.288L70.029,114.828L69.623,115.369L69.218,115.912L68.815,116.456L68.414,117.001L68.014,117.547L67.616,118.095L67.219,118.644L66.824,119.194L66.43,119.745L66.039,120.298L65.648,120.852L65.26,121.407L64.873,121.963L64.488,122.52L64.104,123.079L63.722,123.639L63.342,124.2L62.963,124.762L62.586,125.325L62.211,125.89L61.837,126.455L61.465,127.022L61.094,127.59L60.726,128.16L60.358,128.73L59.993,129.302L59.629,129.875L59.267,130.448L58.907,131.024L58.548,131.6L58.191,132.177L57.836,132.756L57.483,133.335L57.131,133.916L56.781,134.498L56.432,135.081L56.085,135.665L55.74,136.25L55.397,136.837L55.056,137.424L54.716,138.013L54.378,138.603L54.041,139.194L53.707,139.786L53.374,140.379L53.043,140.973L52.713,141.568L52.386,142.164L52.06,142.762L51.736,143.36L51.413,143.96L51.093,144.56L50.774,145.162L50.457,145.765L50.142,146.369L49.828,146.973L49.517,147.579L49.207,148.186L48.898,148.794L48.592,149.403L48.288,150.013L47.985,150.625L47.684,151.237L47.385,151.85L47.088,152.464L46.792,153.08L46.498,153.696L46.207,154.313L45.916,154.932L45.628,155.551L45.342,156.171L45.057,156.792L44.775,157.415L44.494,158.038L44.215,158.662L43.938,159.288L43.662,159.914L43.389,160.541L43.117,161.17L42.847,161.799L42.58,162.429L42.314,163.06L42.049,163.692L41.787,164.326L41.527,164.96L41.268,165.595L41.012,166.231L40.757,166.868L40.504,167.505L40.253,168.144L40.004,168.784L39.757,169.425L39.511,170.066L39.268,170.709L39.027,171.352L38.787,171.997L38.55,172.642L38.314,173.288L38.08,173.936L37.848,174.584L37.618,175.233L37.39,175.883L37.164,176.533L36.94,177.185L36.718,177.838L36.498,178.491L36.28,179.145L36.063,179.801L35.849,180.457L35.637,181.114L35.426,181.772L35.218,182.43L35.011,183.09L34.807,183.751L34.604,184.412L34.404,185.074L34.205,185.737L34.009,186.401L33.814,187.066L33.622,187.731L33.431,188.398L33.242,189.065L33.056,189.733L32.871,190.402L32.689,191.072L32.508,191.743L32.33,192.414L32.153,193.086L31.979,193.759L31.806,194.433L31.636,195.108L31.468,195.784L31.301,196.46L31.137,197.137L30.975,197.815L30.814,198.494L30.656,199.173L30.5,199.854L30.346,200.535L30.194,201.217L30.044,201.899L29.897,202.583L29.751,203.267L29.607,203.952L29.465,204.638L29.326,205.324L29.189,206.012L29.053,206.7L28.92,207.388L28.789,208.078L28.66,208.768L28.533,209.459L28.408,210.151L28.285,210.844L28.165,211.537L28.046,212.231L27.93,212.926L27.815,213.622L27.703,214.318L27.593,215.015L27.485,215.713L27.38,216.411L27.276,217.11L27.175,217.81L27.075,218.51L26.978,219.212L26.883,219.914L26.791,220.617L26.7,221.32L26.611,222.024L26.525,222.729L26.441,223.434L26.359,224.14L26.279,224.847L26.202,225.555L26.126,226.263L26.053,226.972L25.982,227.682L25.913,228.392L25.846,229.103L25.782,229.814L25.72,230.527L25.66,231.24L25.602,231.953L25.547,232.668L25.493,233.382L25.442,234.098L25.393,234.814L25.347,235.531L25.302,236.249L25.26,236.967L25.22,237.686L25.182,238.405L25.147,239.125L25.114,239.846L25.083,240.567L25.054,241.289L25.028,242.011L25.004,242.735L24.982,243.458L24.963,244.183L24.945,244.908L24.93,245.634L24.918,246.36L24.907,247.087L24.899,247.814L24.894,248.542L24.89,249.271L24.889,250L24.89,250.729L24.894,251.458L24.899,252.186L24.907,252.913L24.918,253.64L24.93,254.366L24.945,255.092L24.963,255.817L24.982,256.542L25.004,257.265L25.028,257.989L25.054,258.711L25.083,259.433L25.114,260.154L25.147,260.875L25.182,261.595L25.22,262.314L25.26,263.033L25.302,263.751L25.347,264.469L25.393,265.186L25.442,265.902L25.493,266.618L25.547,267.332L25.602,268.047L25.66,268.76L25.72,269.473L25.782,270.186L25.847,270.897L25.913,271.608L25.982,272.318L26.053,273.028L26.126,273.737L26.202,274.445L26.279,275.153L26.359,275.86L26.441,276.566L26.525,277.271L26.611,277.976L26.7,278.68L26.791,279.383L26.883,280.086L26.978,280.788L27.075,281.489L27.175,282.19L27.276,282.89L27.38,283.589L27.485,284.288L27.593,284.985L27.703,285.682L27.815,286.379L27.93,287.074L28.046,287.769L28.165,288.463L28.285,289.156L28.408,289.849L28.533,290.54L28.66,291.232L28.789,291.922L28.92,292.612L29.053,293.3L29.189,293.989L29.326,294.676L29.465,295.362L29.607,296.048L29.751,296.733L29.897,297.417L30.044,298.101L30.194,298.783L30.346,299.465L30.5,300.146L30.656,300.827L30.814,301.506L30.975,302.185L31.137,302.863L31.301,303.54L31.468,304.217L31.636,304.892L31.806,305.567L31.979,306.241L32.153,306.914L32.33,307.586L32.508,308.257L32.689,308.928L32.871,309.598L33.056,310.267L33.243,310.935L33.431,311.602L33.622,312.269L33.814,312.934L34.009,313.599L34.205,314.263L34.404,314.926L34.604,315.588L34.807,316.25L35.011,316.91L35.218,317.57L35.426,318.228L35.637,318.886L35.849,319.543L36.063,320.199L36.28,320.855L36.498,321.509L36.718,322.162L36.94,322.815L37.164,323.467L37.39,324.118L37.618,324.767L37.848,325.416L38.08,326.065L38.314,326.711L38.55,327.358L38.787,328.003L39.027,328.648L39.268,329.291L39.512,329.934L39.757,330.575L40.004,331.216L40.253,331.856L40.504,332.495L40.757,333.132L41.012,333.769L41.268,334.405L41.527,335.04L41.787,335.674L42.049,336.307L42.313,336.94L42.58,337.571L42.847,338.201L43.117,338.83L43.389,339.459L43.662,340.086L43.938,340.712L44.215,341.337L44.494,341.962L44.775,342.585L45.057,343.207L45.342,343.829L45.628,344.449L45.917,345.069L46.207,345.687L46.498,346.304L46.792,346.92L47.088,347.536L47.385,348.15L47.684,348.763L47.985,349.375L48.288,349.987L48.592,350.596L48.899,351.206L49.207,351.814L49.516,352.421L49.828,353.027L50.142,353.632L50.457,354.235L50.774,354.838L51.093,355.44L51.413,356.04L51.736,356.64L52.06,357.238L52.386,357.836L52.713,358.432L53.043,359.027L53.374,359.621L53.707,360.214L54.041,360.806L54.378,361.397L54.716,361.987L55.056,362.576L55.397,363.163L55.74,363.749L56.085,364.335L56.432,364.919L56.781,365.502L57.131,366.084L57.483,366.665L57.836,367.244L58.191,367.823L58.548,368.4L58.907,368.976L59.267,369.551L59.629,370.126L59.993,370.698L60.358,371.27L60.726,371.84L61.094,372.409L61.465,372.978L61.837,373.545L62.21,374.11L62.586,374.675L62.963,375.238L63.342,375.8L63.722,376.361L64.104,376.921L64.488,377.48L64.873,378.037L65.26,378.593L65.648,379.148L66.039,379.702L66.431,380.255L66.824,380.806L67.219,381.356L67.616,381.905L68.014,382.453L68.414,382.999L68.815,383.544L69.218,384.088L69.623,384.631L70.029,385.172L70.437,385.712L70.847,386.251L71.258,386.789L71.67,387.325L72.085,387.86L72.5,388.394L72.918,388.927L73.337,389.458L73.757,389.988L74.179,390.517L74.603,391.044L75.028,391.57L75.454,392.095L75.883,392.619L76.312,393.141L76.744,393.662L77.177,394.182L77.611,394.7L78.047,395.217L78.484,395.733L78.923,396.247L79.364,396.76L79.806,397.272L80.249,397.782L80.694,398.291L81.14,398.799L81.588,399.305L82.038,399.81L82.489,400.314L82.941,400.816L83.395,401.317L83.851,401.816L84.308,402.314L84.766,402.811L85.226,403.307L85.687,403.801L86.15,404.294L86.614,404.785L87.08,405.274L87.547,405.763L88.016,406.25L88.485,406.736L88.957,407.22L89.43,407.703L89.904,408.184L90.38,408.664L90.857,409.143L91.336,409.62L91.816,410.096L92.297,410.57L92.78,411.043L93.264,411.514L93.75,411.984L94.237,412.453L94.726,412.92L95.215,413.386L95.707,413.85L96.199,414.313L96.693,414.774L97.189,415.234L97.685,415.692L98.184,416.149L98.683,416.605L99.184,417.059L99.686,417.511L100.19,417.962L100.695,418.412L101.201,418.859L101.709,419.306L102.218,419.751L102.728,420.195L103.24,420.636L103.753,421.077L104.267,421.516L104.783,421.953L105.3,422.389L105.818,422.823L106.338,423.256L106.859,423.687L107.381,424.117L107.905,424.546L108.43,424.972L108.956,425.397L109.483,425.821L110.012,426.243L110.542,426.663L111.073,427.082L111.606,427.5L112.14,427.916L112.675,428.33L113.211,428.742L113.749,429.153L114.288,429.563L114.828,429.97L115.369,430.377L115.912,430.782L116.456,431.185L117.001,431.586L117.547,431.986L118.095,432.385L118.644,432.781L119.194,433.176L119.746,433.57L120.298,433.961L120.852,434.352L121.407,434.74L121.963,435.127L122.52,435.512L123.079,435.896L123.639,436.278L124.2,436.658L124.762,437.037L125.325,437.414L125.89,437.79L126.455,438.163L127.022,438.535L127.59,438.906L128.16,439.274L128.73,439.642L129.302,440.007L129.875,440.371L130.449,440.733L131.024,441.093L131.6,441.452L132.177,441.809L132.756,442.164L133.335,442.517L133.916,442.869L134.498,443.22L135.081,443.568L135.665,443.915L136.25,444.26L136.837,444.603L137.425,444.944L138.013,445.284L138.603,445.622L139.193,445.959L139.786,446.293L140.378,446.626L140.973,446.957L141.568,447.287L142.164,447.614L142.762,447.94L143.36,448.264L143.959,448.586L144.56,448.907L145.162,449.226L145.765,449.543L146.369,449.858L146.974,450.172L147.579,450.483L148.186,450.793L148.795,451.102L149.403,451.408L150.013,451.712L150.624,452.015L151.237,452.316L151.85,452.615L152.465,452.913L153.08,453.208L153.696,453.502L154.313,453.793L154.931,454.083L155.551,454.372L156.171,454.658L156.793,454.943L157.415,455.225L158.038,455.506L158.663,455.785L159.288,456.062L159.914,456.338L160.542,456.611L161.17,456.883L161.799,457.153L162.429,457.42L163.06,457.687L163.693,457.951L164.326,458.213L164.959,458.473L165.594,458.732L166.231,458.989L166.868,459.243L167.505,459.496L168.144,459.747L168.784,459.996L169.425,460.243L170.067,460.489L170.709,460.732L171.352,460.973L171.997,461.213L172.642,461.45L173.288,461.686L173.936,461.92L174.584,462.152L175.233,462.382L175.883,462.61L176.533,462.836L177.185,463.06L177.837,463.282L178.491,463.502L179.146,463.72L179.801,463.937L180.457,464.151L181.114,464.363L181.771,464.574L182.43,464.782L183.09,464.989L183.751,465.193L184.412,465.396L185.074,465.596L185.737,465.795L186.401,465.991L187.065,466.186L187.731,466.378L188.398,466.569L189.065,466.758L189.733,466.944L190.402,467.129L191.072,467.311L191.743,467.492L192.414,467.67L193.086,467.847L193.76,468.021L194.433,468.194L195.108,468.364L195.784,468.532L196.46,468.699L197.137,468.863L197.815,469.025L198.493,469.185L199.173,469.344L199.854,469.5L200.535,469.654L201.217,469.806L201.899,469.956L202.583,470.103L203.267,470.249L203.952,470.393L204.637,470.534L205.324,470.674L206.012,470.812L206.7,470.947L207.388,471.08L208.078,471.211L208.768,471.34L209.459,471.467L210.152,471.592L210.844,471.715L211.537,471.835L212.231,471.954L212.926,472.07L213.622,472.185L214.318,472.297L215.014,472.407L215.712,472.515L216.411,472.62L217.11,472.724L217.81,472.825L218.51,472.925L219.212,473.022L219.914,473.117L220.616,473.209L221.32,473.3L222.024,473.389L222.729,473.475L223.435,473.559L224.141,473.641L224.848,473.721L225.555,473.798L226.263,473.874L226.972,473.947L227.682,474.018L228.392,474.087L229.103,474.154L229.814,474.218L230.527,474.28L231.239,474.34L231.953,474.398L232.667,474.453L233.382,474.507L234.098,474.558L234.814,474.607L235.531,474.653L236.249,474.698L236.967,474.74L237.685,474.78L238.405,474.818L239.125,474.853L239.846,474.886L240.567,474.917L241.289,474.946L242.011,474.972L242.735,474.996L243.458,475.018L244.183,475.037L244.908,475.055L245.633,475.07L246.36,475.082L247.087,475.093L247.814,475.101L248.542,475.106L249.271,475.11L250,475.111L250.729,475.11L251.458,475.106L252.186,475.101L252.913,475.093L253.64,475.082L254.367,475.07L255.092,475.055L255.817,475.037L256.542,475.018L257.265,474.996L257.989,474.972L258.711,474.946L259.433,474.917L260.154,474.886L260.875,474.853L261.595,474.818L262.315,474.78L263.033,474.74L263.751,474.698L264.469,474.653L265.186,474.607L265.902,474.558L266.618,474.507L267.333,474.453L268.047,474.398L268.761,474.34L269.473,474.28L270.186,474.218L270.897,474.154L271.608,474.087L272.318,474.018L273.028,473.947L273.737,473.874L274.445,473.798L275.152,473.721L275.859,473.641L276.566,473.559L277.271,473.475L277.976,473.389L278.68,473.3L279.384,473.209L280.086,473.117L280.788,473.022L281.49,472.925L282.19,472.825L282.89,472.724L283.589,472.62L284.288,472.515L284.986,472.407L285.682,472.297L286.378,472.185L287.074,472.07L287.769,471.954L288.463,471.835L289.156,471.715L289.848,471.592L290.541,471.467L291.232,471.34L291.922,471.211L292.612,471.08L293.3,470.947L293.988,470.812L294.676,470.674L295.363,470.534L296.048,470.393L296.733,470.249L297.418,470.103L298.101,469.956L298.783,469.806L299.465,469.654L300.146,469.5L300.827,469.344L301.507,469.185L302.185,469.025L302.863,468.863L303.54,468.699L304.217,468.532L304.892,468.364L305.567,468.194L306.24,468.021L306.914,467.847L307.586,467.67L308.257,467.492L308.928,467.311L309.598,467.129L310.267,466.944L310.935,466.758L311.602,466.569L312.269,466.378L312.934,466.186L313.599,465.991L314.263,465.795L314.926,465.596L315.588,465.396L316.249,465.193L316.91,464.989L317.569,464.782L318.228,464.574L318.887,464.363L319.543,464.151L320.199,463.937L320.854,463.72L321.509,463.502L322.163,463.282L322.815,463.06L323.467,462.836L324.118,462.61L324.767,462.382L325.416,462.152L326.065,461.92L326.712,461.686L327.358,461.45L328.003,461.213L328.648,460.973L329.291,460.732L329.933,460.489L330.575,460.243L331.216,459.996L331.855,459.747L332.495,459.496L333.132,459.243L333.769,458.989L334.406,458.732L335.041,458.473L335.674,458.213L336.307,457.951L336.939,457.687L337.571,457.42L338.201,457.153L338.83,456.883L339.459,456.611L340.086,456.338L340.712,456.062L341.337,455.785L341.962,455.506L342.585,455.225L343.207,454.943L343.829,454.658L344.449,454.372L345.069,454.083L345.687,453.793L346.304,453.502L346.92,453.208L347.535,452.913L348.15,452.615L348.763,452.316L349.376,452.015L349.987,451.712L350.596,451.408L351.205,451.102L351.814,450.793L352.421,450.484L353.027,450.172L353.632,449.858L354.235,449.543L354.838,449.226L355.44,448.907L356.041,448.586L356.64,448.264L357.238,447.94L357.836,447.614L358.432,447.287L359.027,446.957L359.621,446.626L360.214,446.293L360.806,445.959L361.397,445.622L361.987,445.284L362.576,444.944L363.163,444.603L363.749,444.26L364.335,443.915L364.919,443.568L365.502,443.22L366.084,442.869L366.665,442.517L367.244,442.164L367.823,441.809L368.4,441.452L368.976,441.093L369.551,440.733L370.125,440.371L370.698,440.007L371.27,439.642L371.84,439.274L372.41,438.906L372.978,438.535L373.545,438.163L374.11,437.79L374.675,437.414L375.238,437.037L375.8,436.658L376.361,436.278L376.921,435.896L377.48,435.512L378.037,435.127L378.593,434.74L379.148,434.352L379.702,433.961L380.255,433.57L380.806,433.176L381.356,432.781L381.905,432.385L382.453,431.986L382.999,431.586L383.544,431.185L384.088,430.782L384.63,430.377L385.172,429.971L385.712,429.563L386.251,429.153L386.789,428.742L387.325,428.33L387.86,427.916L388.394,427.5L388.927,427.082L389.458,426.663L389.988,426.243L390.517,425.821L391.044,425.397L391.57,424.972L392.095,424.546L392.619,424.117L393.141,423.688L393.662,423.256L394.182,422.823L394.7,422.389L395.217,421.953L395.733,421.516L396.247,421.077L396.76,420.636L397.272,420.195L397.782,419.751L398.291,419.306L398.799,418.86L399.305,418.412L399.81,417.962L400.314,417.511L400.816,417.059L401.317,416.605L401.816,416.149L402.315,415.692L402.811,415.234L403.307,414.774L403.801,414.313L404.293,413.85L404.785,413.386L405.274,412.92L405.763,412.453L406.25,411.984L406.736,411.515L407.22,411.043L407.703,410.57L408.184,410.096L408.664,409.62L409.143,409.143L409.62,408.664L410.096,408.184L410.57,407.703L411.043,407.22L411.515,406.736L411.984,406.25L412.453,405.763L412.92,405.274L413.386,404.785L413.85,404.293L414.313,403.801L414.774,403.307L415.234,402.811L415.692,402.315L416.149,401.816L416.605,401.317L417.059,400.816L417.511,400.314L417.962,399.81L418.412,399.305L418.86,398.799L419.306,398.291L419.751,397.782L420.195,397.272L420.636,396.76L421.077,396.247L421.516,395.733L421.953,395.217L422.389,394.7L422.823,394.182L423.256,393.662L423.688,393.141L424.117,392.619L424.546,392.095L424.972,391.57L425.397,391.044L425.821,390.517L426.243,389.988L426.663,389.458L427.082,388.927L427.5,388.394L427.916,387.86L428.33,387.325L428.742,386.789L429.153,386.251L429.563,385.712L429.971,385.172L430.377,384.63L430.782,384.088L431.185,383.544L431.586,382.999L431.986,382.453L432.385,381.905L432.781,381.356L433.176,380.806L433.57,380.255L433.961,379.702L434.352,379.148L434.74,378.593L435.127,378.037L435.512,377.48L435.896,376.921L436.278,376.361L436.658,375.8L437.037,375.238L437.414,374.675L437.79,374.11L438.163,373.545L438.535,372.978L438.906,372.41L439.274,371.84L439.642,371.27L440.007,370.698L440.371,370.125L440.733,369.551L441.093,368.976L441.452,368.4L441.809,367.823L442.164,367.244L442.517,366.665L442.869,366.084L443.22,365.502L443.568,364.919L443.915,364.335L444.26,363.749L444.603,363.163L444.944,362.576L445.284,361.987L445.622,361.397L445.959,360.806L446.293,360.214L446.626,359.621L446.957,359.027L447.287,358.432L447.614,357.836L447.94,357.238L448.264,356.64L448.586,356.041L448.907,355.44L449.226,354.838L449.543,354.235L449.858,353.632L450.172,353.027L450.484,352.421L450.793,351.814L451.102,351.205L451.408,350.596L451.712,349.987L452.015,349.376L452.316,348.763L452.615,348.15L452.913,347.535L453.208,346.92L453.502,346.304L453.793,345.687L454.083,345.069L454.372,344.449L454.658,343.829L454.943,343.207L455.225,342.585L455.506,341.962L455.785,341.337L456.062,340.712L456.338,340.086L456.611,339.459L456.883,338.83L457.153,338.201L457.42,337.571L457.687,336.939L457.951,336.307L458.213,335.674L458.473,335.041L458.732,334.406L458.989,333.769L459.243,333.132L459.496,332.495L459.747,331.855L459.996,331.216L460.243,330.575L460.489,329.933L460.732,329.291L460.973,328.648L461.213,328.003L461.45,327.358L461.686,326.712L461.92,326.065L462.152,325.416L462.382,324.767L462.61,324.118L462.836,323.467L463.06,322.815L463.282,322.163L463.502,321.509L463.72,320.854L463.937,320.199L464.151,319.543L464.363,318.887L464.574,318.228L464.782,317.569L464.989,316.91L465.193,316.249L465.396,315.588L465.596,314.926L465.795,314.263L465.991,313.599L466.186,312.934L466.378,312.269L466.569,311.602L466.758,310.935L466.944,310.267L467.129,309.598L467.311,308.928L467.492,308.257L467.67,307.586L467.847,306.914L468.021,306.24L468.194,305.567L468.364,304.892L468.532,304.217L468.699,303.54L468.863,302.863L469.025,302.185L469.185,301.507L469.344,300.827L469.5,300.146L469.654,299.465L469.806,298.783L469.956,298.101L470.103,297.418L470.249,296.733L470.393,296.048L470.534,295.363L470.674,294.676L470.812,293.988L470.947,293.3L471.08,292.612L471.211,291.922L471.34,291.232L471.467,290.541L471.592,289.848L471.715,289.156L471.835,288.463L471.954,287.769L472.07,287.074L472.185,286.378L472.297,285.682L472.407,284.986L472.515,284.288L472.62,283.589L472.724,282.89L472.825,282.19L472.925,281.49L473.022,280.788L473.117,280.086L473.209,279.384L473.3,278.68L473.389,277.976L473.475,277.271L473.559,276.566L473.641,275.859L473.721,275.152L473.798,274.445L473.874,273.737L473.947,273.028L474.018,272.318L474.087,271.608L474.154,270.897L474.218,270.186L474.28,269.473L474.34,268.761L474.398,268.047L474.453,267.333L474.507,266.618L474.558,265.902L474.607,265.186L474.653,264.469L474.698,263.751L474.74,263.033L474.78,262.315L474.818,261.595L474.853,260.875L474.886,260.154L474.917,259.433L474.946,258.711L474.972,257.989L474.996,257.265L475.018,256.542L475.037,255.817L475.055,255.092L475.07,254.367L475.082,253.64L475.093,252.913L475.101,252.186L475.106,251.458L475.11,250.729L475.111,250L475.11,249.271L475.106,248.542L475.101,247.814L475.093,247.087L475.082,246.36L475.07,245.633L475.055,244.908L475.037,244.183L475.018,243.458L474.996,242.735L474.972,242.011L474.946,241.289L474.917,240.567L474.886,239.846L474.853,239.125L474.818,238.405L474.78,237.685L474.74,236.967L474.698,236.249L474.653,235.531L474.607,234.814L474.558,234.098L474.507,233.382L474.453,232.667L474.398,231.953L474.34,231.239L474.28,230.527L474.218,229.814L474.154,229.103L474.087,228.392L474.018,227.682L473.947,226.972L473.874,226.263L473.798,225.555L473.721,224.848L473.641,224.141L473.559,223.435L473.475,222.729L473.389,222.024L473.3,221.32L473.209,220.616L473.117,219.914L473.022,219.212L472.925,218.51L472.825,217.81L472.724,217.11L472.62,216.411L472.515,215.712L472.407,215.014L472.297,214.318L472.185,213.622L472.07,212.926L471.954,212.231L471.835,211.537L471.715,210.844L471.592,210.152L471.467,209.459L471.34,208.768L471.211,208.078L471.08,207.388L470.947,206.7L470.812,206.012L470.674,205.324L470.534,204.637L470.393,203.952L470.249,203.267L470.103,202.583L469.956,201.899L469.806,201.217L469.654,200.535L469.5,199.854L469.344,199.173L469.185,198.493L469.025,197.815L468.863,197.137L468.699,196.46L468.532,195.784L468.364,195.108L468.194,194.433L468.021,193.76L467.847,193.086L467.67,192.414L467.492,191.743L467.311,191.072L467.129,190.402L466.944,189.733L466.758,189.065L466.569,188.398L466.378,187.731L466.186,187.065L465.991,186.401L465.795,185.737L465.596,185.074L465.396,184.412L465.193,183.751L464.989,183.09L464.782,182.43L464.574,181.771L464.363,181.114L464.151,180.457L463.937,179.801L463.72,179.146L463.502,178.491L463.282,177.837L463.06,177.185L462.836,176.533L462.61,175.883L462.382,175.233L462.152,174.584L461.92,173.936L461.686,173.288L461.45,172.642L461.213,171.997L460.973,171.352L460.732,170.709L460.489,170.067L460.243,169.425L459.996,168.784L459.747,168.144L459.496,167.505L459.243,166.868L458.989,166.231L458.732,165.594L458.473,164.959L458.213,164.326L457.951,163.693L457.687,163.06L457.42,162.429L457.153,161.799L456.883,161.17L456.611,160.542L456.338,159.914L456.062,159.288L455.785,158.663L455.506,158.038L455.225,157.415L454.943,156.793L454.658,156.171L454.372,155.551L454.083,154.931L453.793,154.313L453.502,153.696L453.208,153.08L452.913,152.465L452.615,151.85L452.316,151.237L452.015,150.624L451.712,150.013L451.408,149.403L451.102,148.795L450.793,148.186L450.483,147.579L450.172,146.974L449.858,146.369L449.543,145.765L449.226,145.162L448.907,144.56L448.586,143.959L448.264,143.36L447.94,142.762L447.614,142.164L447.287,141.568L446.957,140.973L446.626,140.378L446.293,139.786L445.959,139.193L445.622,138.603L445.284,138.013L444.944,137.425L444.603,136.837L444.26,136.25L443.915,135.665L443.568,135.081L443.22,134.498L442.869,133.916L442.517,133.335L442.164,132.756L441.809,132.177L441.452,131.6L441.093,131.024L440.733,130.449L440.371,129.875L440.007,129.302L439.642,128.73L439.274,128.16L438.906,127.59L438.535,127.022L438.163,126.455L437.79,125.89L437.414,125.325L437.037,124.762L436.658,124.2L436.278,123.639L435.896,123.079L435.512,122.52L435.127,121.963L434.74,121.407L434.352,120.852L433.961,120.298L433.57,119.746L433.176,119.194L432.781,118.644L432.385,118.095L431.986,117.547L431.586,117.001L431.185,116.456L430.782,115.912L430.377,115.369L429.97,114.828L429.563,114.288L429.153,113.749L428.742,113.211L428.33,112.675L427.916,112.14L427.5,111.606L427.082,111.073L426.663,110.542L426.243,110.012L425.821,109.483L425.397,108.956L424.972,108.43L424.546,107.905L424.117,107.381L423.687,106.859L423.256,106.338L422.823,105.818L422.389,105.3L421.953,104.783L421.516,104.267L421.077,103.753L420.636,103.24L420.195,102.728L419.751,102.218L419.306,101.709L418.859,101.201L418.412,100.695L417.962,100.19L417.511,99.686L417.059,99.184L416.605,98.683L416.149,98.184L415.692,97.685L415.234,97.189L414.774,96.693L414.313,96.199L413.85,95.707L413.386,95.215L412.92,94.726L412.453,94.237L411.984,93.75L411.514,93.264L411.043,92.78L410.57,92.297L410.096,91.816L409.62,91.336L409.143,90.857L408.664,90.38L408.184,89.904L407.703,89.43L407.22,88.957L406.736,88.485L406.25,88.016L405.763,87.547L405.274,87.08L404.785,86.614L404.294,86.15L403.801,85.687L403.307,85.226L402.811,84.766L402.314,84.308L401.816,83.851L401.317,83.395L400.816,82.941L400.314,82.489L399.81,82.038L399.305,81.588L398.799,81.14L398.291,80.694L397.782,80.249L397.272,79.806L396.76,79.364L396.247,78.923L395.733,78.484L395.217,78.047L394.7,77.611L394.182,77.177L393.662,76.744L393.141,76.312L392.619,75.883L392.095,75.454L391.57,75.028L391.044,74.603L390.517,74.179L389.988,73.757L389.458,73.337L388.927,72.918L388.394,72.5L387.86,72.085L387.325,71.67L386.789,71.258L386.251,70.847L385.712,70.437L385.172,70.029L384.631,69.623L384.088,69.218L383.544,68.815L382.999,68.414L382.453,68.014L381.905,67.616L381.356,67.219L380.806,66.824L380.255,66.431L379.702,66.039L379.148,65.648L378.593,65.26L378.037,64.873L377.48,64.488L376.921,64.104L376.361,63.722L375.8,63.342L375.238,62.963L374.675,62.586L374.11,62.21L373.545,61.837L372.978,61.465L372.409,61.094L371.84,60.726L371.27,60.358L370.698,59.993L370.126,59.629L369.551,59.267L368.976,58.907L368.4,58.548L367.823,58.191L367.244,57.836L366.665,57.483L366.084,57.131L365.502,56.781L364.919,56.432L364.335,56.085L363.749,55.74L363.163,55.397L362.576,55.056L361.987,54.716L361.397,54.378L360.806,54.041L360.214,53.707L359.621,53.374L359.027,53.043L358.432,52.713L357.836,52.386L357.238,52.06L356.64,51.736L356.04,51.413L355.44,51.093L354.838,50.774L354.235,50.457L353.632,50.142L353.027,49.828L352.421,49.516L351.814,49.207L351.206,48.899L350.596,48.592L349.987,48.288L349.375,47.985L348.763,47.684L348.15,47.385L347.536,47.088L346.92,46.792L346.304,46.498L345.687,46.207L345.069,45.917L344.449,45.628L343.829,45.342L343.207,45.057L342.585,44.775L341.962,44.494L341.337,44.215L340.712,43.938L340.086,43.662L339.459,43.389L338.83,43.117L338.201,42.847L337.571,42.58L336.94,42.313L336.307,42.049L335.674,41.787L335.04,41.527L334.405,41.268L333.769,41.012L333.132,40.757L332.495,40.504L331.856,40.253L331.216,40.004L330.575,39.757L329.934,39.512L329.291,39.268L328.648,39.027L328.003,38.787L327.358,38.55L326.711,38.314L326.065,38.08L325.416,37.848L324.767,37.618L324.118,37.39L323.467,37.164L322.815,36.94L322.162,36.718L321.509,36.498L320.855,36.28L320.199,36.063L319.543,35.849L318.886,35.637L318.228,35.426L317.57,35.218L316.91,35.011L316.25,34.807L315.588,34.604L314.926,34.404L314.263,34.205L313.599,34.009L312.934,33.814L312.269,33.622L311.602,33.431L310.935,33.243L310.267,33.056L309.598,32.871L308.928,32.689L308.257,32.508L307.586,32.33L306.914,32.153L306.241,31.979L305.567,31.806L304.892,31.636L304.217,31.468L303.54,31.301L302.863,31.137L302.185,30.975L301.506,30.814L300.827,30.656L300.146,30.5L299.465,30.346L298.783,30.194L298.101,30.044L297.417,29.897L296.733,29.751L296.048,29.607L295.362,29.465L294.676,29.326L293.989,29.189L293.3,29.053L292.612,28.92L291.922,28.789L291.232,28.66L290.54,28.533L289.849,28.408L289.156,28.285L288.463,28.165L287.769,28.046L287.074,27.93L286.379,27.815L285.682,27.703L284.985,27.593L284.288,27.485L283.589,27.38L282.89,27.276L282.19,27.175L281.489,27.075L280.788,26.978L280.086,26.883L279.383,26.791L278.68,26.7L277.976,26.611L277.271,26.525L276.566,26.441L275.86,26.359L275.153,26.279L274.445,26.202L273.737,26.126L273.028,26.053L272.318,25.982L271.608,25.913L270.897,25.847L270.186,25.782L269.473,25.72L268.76,25.66L268.047,25.602L267.332,25.547L266.618,25.493L265.902,25.442L265.186,25.393L264.469,25.347L263.751,25.302L263.033,25.26L262.314,25.22L261.595,25.182L260.875,25.147L260.154,25.114L259.433,25.083L258.711,25.054L257.989,25.028L257.265,25.004L256.542,24.982L255.817,24.963L255.092,24.945L254.366,24.93L253.64,24.918L252.913,24.907L252.186,24.899L251.458,24.894L250.729,24.89L250,24.889L249.271,24.89Z" style="fill:rgb(255,255,255);"/>
    <g transform="matrix(1,0,0,1,14.3036,8.25529)">
        <g transform="matrix(96,0,0,96,67.626,216.512)">
            <path d="M0.412,-0.281L0.412,-0.365L0.715,-0.365L0.715,-0.1C0.669,-0.063 0.621,-0.035 0.571,-0.016C0.522,0.003 0.471,0.012 0.419,0.012C0.349,0.012 0.285,-0.003 0.227,-0.033C0.17,-0.063 0.126,-0.107 0.097,-0.164C0.068,-0.221 0.053,-0.284 0.053,-0.354C0.053,-0.424 0.068,-0.489 0.097,-0.55C0.126,-0.61 0.168,-0.655 0.223,-0.684C0.277,-0.713 0.34,-0.728 0.412,-0.728C0.463,-0.728 0.51,-0.72 0.552,-0.703C0.594,-0.686 0.627,-0.663 0.65,-0.633C0.674,-0.603 0.692,-0.564 0.705,-0.516L0.619,-0.492C0.608,-0.529 0.595,-0.557 0.579,-0.578C0.563,-0.599 0.54,-0.616 0.511,-0.628C0.481,-0.641 0.448,-0.647 0.412,-0.647C0.369,-0.647 0.331,-0.64 0.3,-0.627C0.268,-0.614 0.243,-0.597 0.223,-0.575C0.204,-0.554 0.189,-0.53 0.178,-0.504C0.16,-0.46 0.151,-0.412 0.151,-0.36C0.151,-0.297 0.162,-0.243 0.184,-0.2C0.206,-0.157 0.238,-0.125 0.28,-0.104C0.322,-0.084 0.366,-0.073 0.414,-0.073C0.455,-0.073 0.495,-0.081 0.534,-0.097C0.573,-0.113 0.602,-0.13 0.623,-0.147L0.623,-0.281L0.412,-0.281Z" style="fill:rgb(255,255,255);fill-rule:nonzero;"/>
        </g>
        <g transform="matrix(96,0,0,96,142.298,216.512)">
            <path d="M0.421,-0.167L0.512,-0.156C0.497,-0.103 0.471,-0.062 0.432,-0.032C0.393,-0.003 0.344,0.012 0.284,0.012C0.208,0.012 0.148,-0.012 0.103,-0.058C0.059,-0.105 0.037,-0.171 0.037,-0.255C0.037,-0.342 0.059,-0.41 0.104,-0.458C0.149,-0.506 0.207,-0.53 0.279,-0.53C0.348,-0.53 0.405,-0.507 0.449,-0.459C0.493,-0.412 0.515,-0.346 0.515,-0.26C0.515,-0.255 0.514,-0.247 0.514,-0.237L0.127,-0.237C0.131,-0.18 0.147,-0.136 0.176,-0.106C0.205,-0.076 0.241,-0.061 0.284,-0.061C0.316,-0.061 0.344,-0.069 0.367,-0.086C0.389,-0.103 0.408,-0.13 0.421,-0.167ZM0.132,-0.309L0.422,-0.309C0.418,-0.353 0.407,-0.385 0.389,-0.407C0.361,-0.441 0.324,-0.458 0.28,-0.458C0.239,-0.458 0.205,-0.444 0.178,-0.417C0.15,-0.39 0.135,-0.354 0.132,-0.309Z" style="fill:rgb(255,255,255);fill-rule:nonzero;"/>
        </g>
        <g transform="matrix(96,0,0,96,195.689,216.512)">
            <path d="M0.066,0L0.066,-0.519L0.145,-0.519L0.145,-0.445C0.183,-0.502 0.238,-0.53 0.31,-0.53C0.341,-0.53 0.37,-0.525 0.396,-0.513C0.422,-0.502 0.442,-0.487 0.455,-0.469C0.468,-0.451 0.477,-0.429 0.482,-0.404C0.486,-0.388 0.487,-0.36 0.487,-0.319L0.487,0L0.399,0L0.399,-0.315C0.399,-0.351 0.396,-0.378 0.389,-0.396C0.382,-0.413 0.37,-0.428 0.353,-0.438C0.335,-0.449 0.315,-0.454 0.292,-0.454C0.254,-0.454 0.222,-0.442 0.195,-0.418C0.167,-0.395 0.154,-0.35 0.154,-0.283L0.154,0L0.066,0Z" style="fill:rgb(255,255,255);fill-rule:nonzero;"/>
        </g>
        <g transform="matrix(96,0,0,96,249.079,216.512)">
            <path d="M0.421,-0.167L0.512,-0.156C0.497,-0.103 0.471,-0.062 0.432,-0.032C0.393,-0.003 0.344,0.012 0.284,0.012C0.208,0.012 0.148,-0.012 0.103,-0.058C0.059,-0.105 0.037,-0.171 0.037,-0.255C0.037,-0.342 0.059,-0.41 0.104,-0.458C0.149,-0.506 0.207,-0.53 0.279,-0.53C0.348,-0.53 0.405,-0.507 0.449,-0.459C0.493,-0.412 0.515,-0.346 0.515,-0.26C0.515,-0.255 0.514,-0.247 0.514,-0.237L0.127,-0.237C0.131,-0.18 0.147,-0.136 0.176,-0.106C0.205,-0.076 0.241,-0.061 0.284,-0.061C0.316,-0.061 0.344,-0.069 0.367,-0.086C0.389,-0.103 0.408,-0.13 0.421,-0.167ZM0.132,-0.309L0.422,-0.309C0.418,-0.353 0.407,-0.385 0.389,-0.407C0.361,-0.441 0.324,-0.458 0.28,-0.458C0.239,-0.458 0.205,-0.444 0.178,-0.417C0.15,-0.39 0.135,-0.354 0.132,-0.309Z" style="fill:rgb(255,255,255);fill-rule:nonzero;"/>
        </g>
        <g transform="matrix(96,0,0,96,302.47,216.512)">
            <path d="M0.065,0L0.065,-0.519L0.144,-0.519L0.144,-0.44C0.164,-0.477 0.183,-0.501 0.2,-0.513C0.217,-0.524 0.236,-0.53 0.256,-0.53C0.286,-0.53 0.316,-0.521 0.347,-0.502L0.316,-0.42C0.295,-0.433 0.273,-0.439 0.252,-0.439C0.233,-0.439 0.215,-0.434 0.2,-0.422C0.185,-0.411 0.174,-0.395 0.167,-0.374C0.158,-0.343 0.153,-0.309 0.153,-0.271L0.153,0L0.065,0Z" style="fill:rgb(255,255,255);fill-rule:nonzero;"/>
        </g>
        <g transform="matrix(96,0,0,96,334.439,216.512)">
            <path d="M0.066,-0.615L0.066,-0.716L0.154,-0.716L0.154,-0.615L0.066,-0.615ZM0.066,0L0.066,-0.519L0.154,-0.519L0.154,0L0.066,0Z" style="fill:rgb(255,255,255);fill-rule:nonzero;"/>
        </g>
        <g transform="matrix(96,0,0,96,355.767,216.512)">
            <path d="M0.404,-0.19L0.491,-0.179C0.481,-0.119 0.457,-0.073 0.418,-0.039C0.379,-0.005 0.332,0.012 0.275,0.012C0.204,0.012 0.147,-0.011 0.104,-0.058C0.061,-0.104 0.039,-0.171 0.039,-0.257C0.039,-0.313 0.048,-0.362 0.067,-0.404C0.085,-0.446 0.114,-0.478 0.152,-0.499C0.19,-0.52 0.231,-0.53 0.275,-0.53C0.332,-0.53 0.378,-0.516 0.414,-0.488C0.449,-0.459 0.472,-0.419 0.482,-0.366L0.397,-0.353C0.389,-0.388 0.374,-0.414 0.354,-0.432C0.333,-0.449 0.308,-0.458 0.279,-0.458C0.235,-0.458 0.199,-0.442 0.171,-0.41C0.143,-0.379 0.129,-0.328 0.129,-0.26C0.129,-0.19 0.143,-0.139 0.169,-0.108C0.196,-0.076 0.231,-0.061 0.274,-0.061C0.308,-0.061 0.337,-0.071 0.36,-0.092C0.383,-0.113 0.398,-0.146 0.404,-0.19Z" style="fill:rgb(255,255,255);fill-rule:nonzero;"/>
        </g>
        <g transform="matrix(96,0,0,96,128.915,315.652)">
            <path d="M0.073,0L0.073,-0.716L0.168,-0.716L0.168,-0.084L0.521,-0.084L0.521,0L0.073,0Z" style="fill:rgb(255,255,255);fill-rule:nonzero;"/>
        </g>
        <g transform="matrix(96,0,0,96,182.306,315.652)">
            <path d="M0.033,-0.259C0.033,-0.355 0.06,-0.426 0.113,-0.473C0.158,-0.511 0.212,-0.53 0.276,-0.53C0.348,-0.53 0.406,-0.507 0.451,-0.46C0.496,-0.413 0.519,-0.349 0.519,-0.267C0.519,-0.2 0.509,-0.147 0.489,-0.109C0.469,-0.071 0.44,-0.041 0.402,-0.02C0.363,0.001 0.322,0.012 0.276,0.012C0.204,0.012 0.145,-0.012 0.1,-0.058C0.056,-0.105 0.033,-0.172 0.033,-0.259ZM0.124,-0.259C0.124,-0.193 0.138,-0.143 0.167,-0.11C0.196,-0.077 0.232,-0.061 0.276,-0.061C0.32,-0.061 0.356,-0.077 0.385,-0.11C0.414,-0.144 0.429,-0.194 0.429,-0.262C0.429,-0.326 0.414,-0.375 0.385,-0.408C0.356,-0.441 0.32,-0.458 0.276,-0.458C0.232,-0.458 0.196,-0.441 0.167,-0.408C0.138,-0.375 0.124,-0.326 0.124,-0.259Z" style="fill:rgb(255,255,255);fill-rule:nonzero;"/>
        </g>
        <g transform="matrix(96,0,0,96,235.696,315.652)">
            <path d="M0.05,0.043L0.135,0.056C0.139,0.082 0.149,0.101 0.165,0.113C0.187,0.13 0.217,0.138 0.254,0.138C0.295,0.138 0.326,0.13 0.349,0.113C0.371,0.097 0.386,0.074 0.394,0.045C0.398,0.027 0.4,-0.011 0.4,-0.068C0.361,-0.023 0.314,0 0.256,0C0.185,0 0.13,-0.026 0.091,-0.077C0.052,-0.129 0.032,-0.19 0.032,-0.262C0.032,-0.312 0.041,-0.357 0.059,-0.399C0.077,-0.441 0.103,-0.473 0.137,-0.496C0.171,-0.519 0.211,-0.53 0.257,-0.53C0.318,-0.53 0.368,-0.506 0.408,-0.456L0.408,-0.519L0.489,-0.519L0.489,-0.07C0.489,0.01 0.481,0.068 0.465,0.101C0.448,0.135 0.422,0.162 0.386,0.181C0.351,0.201 0.307,0.21 0.255,0.21C0.193,0.21 0.143,0.197 0.105,0.169C0.067,0.141 0.049,0.099 0.05,0.043ZM0.123,-0.269C0.123,-0.201 0.136,-0.151 0.163,-0.12C0.19,-0.088 0.224,-0.073 0.265,-0.073C0.305,-0.073 0.339,-0.088 0.366,-0.119C0.394,-0.15 0.407,-0.199 0.407,-0.266C0.407,-0.329 0.393,-0.377 0.365,-0.409C0.337,-0.441 0.303,-0.458 0.263,-0.458C0.224,-0.458 0.191,-0.442 0.164,-0.41C0.136,-0.378 0.123,-0.331 0.123,-0.269Z" style="fill:rgb(255,255,255);fill-rule:nonzero;"/>
        </g>
        <g transform="matrix(96,0,0,96,289.087,315.652)">
            <path d="M0.033,-0.259C0.033,-0.355 0.06,-0.426 0.113,-0.473C0.158,-0.511 0.212,-0.53 0.276,-0.53C0.348,-0.53 0.406,-0.507 0.451,-0.46C0.496,-0.413 0.519,-0.349 0.519,-0.267C0.519,-0.2 0.509,-0.147 0.489,-0.109C0.469,-0.071 0.44,-0.041 0.402,-0.02C0.363,0.001 0.322,0.012 0.276,0.012C0.204,0.012 0.145,-0.012 0.1,-0.058C0.056,-0.105 0.033,-0.172 0.033,-0.259ZM0.124,-0.259C0.124,-0.193 0.138,-0.143 0.167,-0.11C0.196,-0.077 0.232,-0.061 0.276,-0.061C0.32,-0.061 0.356,-0.077 0.385,-0.11C0.414,-0.144 0.429,-0.194 0.429,-0.262C0.429,-0.326 0.414,-0.375 0.385,-0.408C0.356,-0.441 0.32,-0.458 0.276,-0.458C0.232,-0.458 0.196,-0.441 0.167,-0.408C0.138,-0.375 0.124,-0.326 0.124,-0.259Z" style="fill:rgb(255,255,255);fill-rule:nonzero;"/>
        </g>
    </g>
</svg>
