<?xml version="1.0" encoding="UTF-8" standalone="no"?>
<!DOCTYPE svg PUBLIC "-//W3C//DTD SVG 1.1//EN" "http://www.w3.org/Graphics/SVG/1.1/DTD/svg11.dtd">
<svg width="100%" height="100%" viewBox="0 0 500 500" version="1.1" xmlns="http://www.w3.org/2000/svg" xmlns:xlink="http://www.w3.org/1999/xlink" xml:space="preserve" xmlns:serif="http://www.serif.com/" style="fill-rule:evenodd;clip-rule:evenodd;stroke-linecap:round;stroke-linejoin:round;stroke-miterlimit:1.5;">
    <g transform="matrix(1.45889,0,0,1.45889,-123.998,-119.397)">
        <g>
            <path id="BlackVisuals" d="M136.708,264.842C133.251,267.687 130.078,270.86 127.233,274.317L133.27,283.475C130.712,286.957 128.545,290.71 126.808,294.666L115.859,294.017C114.288,298.209 113.126,302.544 112.391,306.96L122.198,311.873C121.724,316.167 121.724,320.501 122.198,324.796L112.391,329.708C113.126,334.125 114.288,338.459 115.859,342.651L126.808,342.002C128.545,345.959 130.712,349.712 133.27,353.194L127.233,362.352C130.078,365.809 133.251,368.982 136.708,371.827L145.866,365.79C149.348,368.348 153.101,370.515 157.058,372.252L156.408,383.201C160.601,384.772 164.935,385.934 169.352,386.669L174.264,376.862C178.559,377.336 182.892,377.336 187.187,376.862L192.099,386.669C196.516,385.934 200.85,384.772 205.043,383.201L204.394,372.252C208.35,370.515 212.103,368.348 215.585,365.79L224.743,371.827C228.2,368.982 231.373,365.809 234.218,362.352L228.181,353.194C230.739,349.712 232.906,345.959 234.643,342.002L245.592,342.651C247.163,338.459 248.325,334.125 249.06,329.708L239.253,324.796C239.727,320.501 239.727,316.167 239.253,311.873L249.06,306.96C248.325,302.544 247.163,298.209 245.592,294.017L234.643,294.666C232.906,290.71 230.739,286.957 228.181,283.475L234.218,274.317C231.373,270.86 228.2,267.687 224.743,264.842L215.585,270.879C212.103,268.321 208.35,266.154 204.394,264.417L205.043,253.468C200.85,251.897 196.516,250.735 192.099,250L187.187,259.807C182.892,259.333 178.559,259.333 174.264,259.807L169.352,250C164.935,250.735 160.601,251.897 156.408,253.468L157.058,264.417C153.101,266.154 149.348,268.321 145.866,270.879L136.708,264.842ZM212.877,301.078C212.877,306.163 211.787,310.868 209.608,315.193C207.429,319.518 204.556,323.712 200.99,327.773C197.424,331.834 193.363,335.928 188.807,340.055C184.251,344.182 179.595,348.59 174.841,353.279C174.378,353.279 174.098,353.163 173.999,352.932C173.9,352.701 173.9,352.387 173.999,351.991C174.098,351.595 174.246,351.166 174.444,350.703C174.642,350.241 174.841,349.779 175.039,349.317C176.491,345.817 177.68,341.97 178.605,337.777C179.529,333.584 180.107,329.391 180.338,325.197C180.569,321.004 180.47,316.943 180.041,313.014C179.612,309.085 178.753,305.602 177.465,302.564C176.178,299.526 174.477,297.1 172.364,295.284C170.251,293.468 167.643,292.56 164.539,292.56C160.049,292.56 156.384,294.458 153.544,298.255C150.705,302.052 148.328,307.583 146.413,314.846C146.28,315.111 146.082,315.21 145.818,315.144C145.554,315.078 145.422,314.912 145.422,314.648C147.337,306.394 150.044,300.121 153.544,295.828C157.044,291.536 161.27,289.39 166.223,289.39C169.261,289.39 171.869,290.149 174.048,291.668C176.227,293.187 178.043,295.267 179.496,297.908C180.949,300.55 182.005,303.67 182.666,307.269C183.326,310.868 183.656,314.764 183.656,318.957C183.656,323.15 183.31,327.542 182.616,332.131C181.923,336.72 180.949,341.326 179.694,345.949C184.317,342.119 188.477,338.52 192.175,335.152C195.873,331.784 198.976,328.466 201.486,325.197C203.995,321.929 205.926,318.61 207.28,315.243C208.634,311.875 209.311,308.276 209.311,304.446C209.311,301.144 208.551,298.536 207.033,296.621C205.514,294.706 203.599,293.682 201.288,293.55C199.439,293.484 197.854,294.805 196.533,297.512C196.335,297.644 196.137,297.644 195.939,297.512C195.741,297.38 195.642,297.149 195.642,296.819C195.972,295.894 196.45,294.986 197.078,294.095C197.705,293.204 198.365,292.411 199.059,291.718C199.752,291.024 200.462,290.463 201.188,290.034C201.915,289.605 202.542,289.39 203.07,289.39C204.457,289.39 205.745,289.687 206.933,290.281C208.122,290.876 209.162,291.701 210.054,292.758C210.945,293.814 211.638,295.052 212.134,296.472C212.629,297.892 212.877,299.427 212.877,301.078Z"/>
            <g id="WhiteVisceralGear">
                <path d="M187.425,111.776C182.969,111.343 178.482,111.343 174.026,111.776L171.819,122.52C167.548,123.173 163.362,124.295 159.336,125.864L152.053,117.663C147.977,119.516 144.091,121.76 140.448,124.363L143.909,134.771C140.537,137.473 137.473,140.537 134.771,143.909L124.363,140.448C121.76,144.091 119.516,147.977 117.663,152.053L125.864,159.336C124.295,163.362 123.173,167.548 122.52,171.819L111.776,174.026C111.343,178.482 111.343,182.969 111.776,187.425L122.52,189.632C123.173,193.903 124.295,198.089 125.864,202.115L117.663,209.398C119.516,213.474 121.76,217.36 124.363,221.003L134.771,217.542C137.473,220.914 140.537,223.978 143.909,226.68L140.448,237.088C144.091,239.691 147.977,241.935 152.053,243.788L159.336,235.587C163.362,237.156 167.548,238.278 171.819,238.931L174.026,249.675C178.482,250.108 182.969,250.108 187.425,249.675L189.632,238.931C193.903,238.278 198.089,237.156 202.115,235.587L209.398,243.788C213.474,241.935 217.36,239.691 221.003,237.088L217.542,226.68C220.914,223.978 223.978,220.914 226.68,217.542L237.088,221.003C239.691,217.36 241.935,213.474 243.788,209.398L235.587,202.115C237.156,198.089 238.278,193.903 238.931,189.632L249.675,187.425C250.108,182.969 250.108,178.482 249.675,174.026L238.931,171.819C238.278,167.548 237.156,163.362 235.587,159.336L243.788,152.053C241.935,147.977 239.691,144.091 237.088,140.448L226.68,143.909C223.978,140.537 220.914,137.473 217.542,134.771L221.003,124.363C217.36,121.76 213.474,119.516 209.398,117.663L202.115,125.864C198.089,124.295 193.903,123.173 189.632,122.52L187.425,111.776ZM180.726,134.241C206.381,134.241 227.21,155.07 227.21,180.726C227.21,206.381 206.381,227.21 180.726,227.21C155.07,227.21 134.241,206.381 134.241,180.726C134.241,155.07 155.07,134.241 180.726,134.241Z" style="stroke:black;stroke-width:1px;"/>
                <g transform="matrix(0.856844,0,0,0.856844,151.259,217.101)">
                    <text x="0px" y="0px" style="font-family:'Rye-Regular', 'Rye', sans-serif;font-size:98.711px;">V</text>
                </g>
            </g>
            <g transform="matrix(0.699667,0,0,0.699667,250.428,352.715)">
                <text x="0px" y="0px" style="font-family:'Tangerine-Regular', 'Tangerine';font-size:178.532px;">isuals</text>
            </g>
        </g>
        <g transform="matrix(0.379046,0,0,0.379046,253.595,200.56)">
            <text x="0px" y="0px" style="font-family:'Rye-Regular', 'Rye', sans-serif;font-size:129.744px;">isceral</text>
        </g>
        <path d="M427.714,213.859L427.722,213.852L427.579,214.226C415.287,246.106 353.786,294.849 329.041,300.257C304.2,305.687 287.6,291.743 270.999,292.797C267.262,287.891 263.843,280.527 259.673,273.424C257.515,269.748 254.212,266.181 250.327,263.071C250.016,263.007 249.705,262.942 249.395,262.878C250.285,263.944 251.005,264.929 251.005,264.929C251.48,265.64 251.928,266.369 252.355,267.11C253.987,269.94 254.956,273.077 255.776,276.41C255.776,276.41 256.537,280.191 256.812,282.396C256.991,283.824 257.195,285.849 257.195,285.849C257.467,289.322 257.63,292.799 257.679,296.278C257.679,296.278 256.262,292.606 255.3,290.094C251.435,280.086 247.78,270.103 241.879,262.936C241.281,262.209 240.651,261.512 239.994,260.842L239.912,260.823L239.651,260.765C239.778,260.977 239.899,261.196 240.015,261.42C243.499,268.164 239.374,276.377 236.87,280.994C236.87,280.994 238.248,272.792 238.082,269.516C237.898,265.913 236.713,262.44 233.837,259.434C233.493,259.354 233.15,259.274 232.806,259.194L232.047,259.016C226.513,257.656 220.95,256.281 215.42,255.016C215.396,255.278 215.374,255.542 215.355,255.808C215.181,258.317 214.411,260.746 213.845,263.197C213.845,263.197 213.546,257.675 212.547,254.369C199.774,251.54 187.237,249.428 175.708,249.621C141.84,250.189 108.985,267.054 84.995,292.061C102.896,269.882 127.233,252.555 154.78,245.252C175.689,239.709 197.582,241.825 220.443,246.098C223.3,246.34 220.795,246.659 225.151,243.526L226.667,242.663C228.58,241.906 233.671,239.827 232.87,234.976C232.654,233.667 231.884,231.926 232.153,232.293C234.486,235.541 235.108,240.048 231.869,243.203C230.572,244.467 228.994,245.472 227.363,246.104L226.374,246.371C226.074,246.421 225.774,246.466 225.473,246.511C224.796,246.607 224.242,246.681 223.789,246.737C226.742,247.312 229.711,247.918 232.696,248.544C235.471,247.789 238.095,246.772 240.685,245.247C246.21,241.994 250.242,236.183 250.115,228.089C250.099,227.015 249.876,225.346 250.04,225.807C252.135,231.823 252.244,238.633 248.071,244.053C247.238,245.135 246.265,246.079 245.178,246.892C245.756,246.655 246.324,246.419 246.881,246.183C251.166,242.865 254.297,239.247 255.408,237.615C258.639,232.864 256.885,226.162 255.776,221.971C254.53,217.263 252.877,212.654 251.37,208.059C251.37,208.059 251.168,207.676 251.419,208.035C255.143,213.42 259.045,218.628 261.654,224.929C263.391,229.127 263.894,234.046 262.455,238.303C268.963,234.197 273.385,229.9 277.249,224.718C285.591,213.531 395.069,241.707 427.532,214.015L427.692,213.877C427.624,213.969 427.489,214.157 427.489,214.157C416.566,228.409 403.389,240.887 387.854,249.574C363.96,262.937 338.754,264.902 314.52,264.262C282.113,263.405 252.743,257.506 222.981,251.605L223.599,251.762C250.017,258.477 277.444,265.095 304.816,267.32C319.933,268.549 334.899,268.911 349.573,266.343C382.821,260.526 409.459,240.452 427.505,214.169L427.714,213.859Z"/>
    </g>
</svg>
