<?xml version="1.0" encoding="UTF-8" standalone="no"?>
<!DOCTYPE svg PUBLIC "-//W3C//DTD SVG 1.1//EN" "http://www.w3.org/Graphics/SVG/1.1/DTD/svg11.dtd">
<svg width="100%" height="100%" viewBox="0 0 636 292" version="1.1" xmlns="http://www.w3.org/2000/svg" xmlns:xlink="http://www.w3.org/1999/xlink" xml:space="preserve" xmlns:serif="http://www.serif.com/" style="fill-rule:evenodd;clip-rule:evenodd;stroke-linejoin:round;stroke-miterlimit:2;">
    <g transform="matrix(1,0,0,1,-297.896,-226.117)">
        <g id="left">
            <g transform="matrix(0.991678,0,0,0.991678,22.469,-193.601)">
                <g transform="matrix(226,0,0,226,261.918,716.847)">
                    <path d="M0.751,-0.526C0.751,-0.475 0.74,-0.427 0.718,-0.384C0.696,-0.34 0.667,-0.298 0.631,-0.257C0.595,-0.216 0.554,-0.174 0.508,-0.133C0.462,-0.091 0.415,-0.046 0.367,0.001C0.362,0.001 0.36,0 0.359,-0.003C0.358,-0.005 0.358,-0.008 0.359,-0.012C0.36,-0.016 0.361,-0.02 0.363,-0.025C0.365,-0.03 0.367,-0.034 0.369,-0.039C0.384,-0.074 0.396,-0.113 0.405,-0.156C0.414,-0.198 0.42,-0.24 0.423,-0.282C0.425,-0.325 0.424,-0.366 0.42,-0.406C0.415,-0.445 0.406,-0.48 0.394,-0.511C0.381,-0.542 0.363,-0.566 0.342,-0.585C0.321,-0.603 0.294,-0.612 0.263,-0.612C0.218,-0.612 0.181,-0.593 0.152,-0.555C0.123,-0.516 0.099,-0.46 0.08,-0.387C0.079,-0.384 0.077,-0.383 0.074,-0.384C0.071,-0.385 0.07,-0.386 0.07,-0.389C0.089,-0.472 0.117,-0.536 0.152,-0.579C0.187,-0.622 0.23,-0.644 0.28,-0.644C0.311,-0.644 0.337,-0.636 0.359,-0.621C0.381,-0.606 0.399,-0.585 0.414,-0.558C0.429,-0.531 0.439,-0.5 0.446,-0.464C0.453,-0.427 0.456,-0.388 0.456,-0.345C0.456,-0.303 0.453,-0.259 0.446,-0.213C0.439,-0.166 0.429,-0.12 0.416,-0.073C0.463,-0.112 0.505,-0.148 0.542,-0.182C0.579,-0.216 0.611,-0.25 0.636,-0.282C0.661,-0.316 0.681,-0.349 0.695,-0.383C0.708,-0.417 0.715,-0.453 0.715,-0.492C0.715,-0.525 0.707,-0.552 0.692,-0.571C0.677,-0.59 0.657,-0.601 0.634,-0.602C0.615,-0.603 0.599,-0.589 0.586,-0.562C0.584,-0.561 0.582,-0.561 0.58,-0.562C0.578,-0.563 0.577,-0.566 0.577,-0.569C0.58,-0.578 0.585,-0.588 0.592,-0.597C0.598,-0.606 0.605,-0.614 0.612,-0.621C0.619,-0.627 0.626,-0.633 0.633,-0.637C0.64,-0.642 0.647,-0.644 0.652,-0.644C0.666,-0.644 0.679,-0.641 0.691,-0.635C0.703,-0.629 0.714,-0.621 0.723,-0.61C0.732,-0.599 0.739,-0.587 0.744,-0.573C0.749,-0.558 0.751,-0.543 0.751,-0.526Z" style="fill:white;fill-rule:nonzero;"/>
                </g>
                <g transform="matrix(226,0,0,226,411.304,716.847)">
                    <path d="M0.052,-0.186C0.05,-0.185 0.048,-0.185 0.047,-0.188C0.045,-0.19 0.045,-0.192 0.046,-0.194C0.055,-0.203 0.068,-0.214 0.084,-0.226C0.1,-0.238 0.116,-0.248 0.132,-0.256C0.137,-0.256 0.14,-0.253 0.14,-0.247C0.131,-0.232 0.123,-0.215 0.115,-0.197C0.106,-0.179 0.099,-0.161 0.093,-0.143C0.086,-0.126 0.081,-0.109 0.077,-0.093C0.073,-0.076 0.071,-0.063 0.071,-0.052C0.071,-0.038 0.076,-0.031 0.085,-0.031C0.092,-0.031 0.1,-0.034 0.107,-0.041C0.114,-0.047 0.122,-0.055 0.131,-0.066C0.132,-0.067 0.134,-0.067 0.136,-0.065C0.138,-0.063 0.138,-0.061 0.137,-0.058C0.125,-0.043 0.112,-0.03 0.099,-0.018C0.085,-0.006 0.072,0 0.06,0C0.043,0 0.034,-0.011 0.034,-0.033C0.034,-0.046 0.036,-0.061 0.041,-0.079C0.045,-0.096 0.05,-0.114 0.057,-0.132C0.064,-0.15 0.071,-0.167 0.08,-0.184C0.088,-0.201 0.096,-0.215 0.104,-0.227C0.097,-0.222 0.087,-0.215 0.077,-0.206C0.066,-0.198 0.057,-0.191 0.052,-0.186ZM0.142,-0.299C0.14,-0.297 0.138,-0.297 0.137,-0.299C0.135,-0.3 0.134,-0.303 0.133,-0.306C0.132,-0.309 0.132,-0.312 0.132,-0.316C0.132,-0.32 0.133,-0.323 0.135,-0.326C0.152,-0.35 0.177,-0.376 0.208,-0.403C0.21,-0.404 0.212,-0.403 0.214,-0.402C0.216,-0.4 0.216,-0.398 0.215,-0.397C0.201,-0.384 0.188,-0.369 0.175,-0.352C0.162,-0.334 0.151,-0.316 0.142,-0.299Z" style="fill:white;fill-rule:nonzero;"/>
                </g>
                <g transform="matrix(226,0,0,226,444.978,716.847)">
                    <path d="M0.139,-0.256C0.152,-0.256 0.164,-0.254 0.172,-0.25C0.182,-0.245 0.186,-0.24 0.186,-0.235C0.186,-0.228 0.185,-0.219 0.182,-0.21C0.179,-0.201 0.175,-0.193 0.172,-0.187C0.171,-0.186 0.169,-0.186 0.167,-0.187C0.164,-0.188 0.163,-0.189 0.164,-0.191C0.166,-0.196 0.167,-0.201 0.168,-0.207C0.169,-0.213 0.168,-0.218 0.167,-0.223C0.164,-0.236 0.154,-0.243 0.139,-0.243C0.128,-0.243 0.118,-0.24 0.112,-0.233C0.105,-0.226 0.101,-0.216 0.101,-0.203C0.101,-0.192 0.104,-0.182 0.11,-0.172C0.115,-0.163 0.122,-0.153 0.129,-0.143C0.136,-0.134 0.142,-0.124 0.148,-0.113C0.153,-0.102 0.156,-0.089 0.156,-0.076C0.156,-0.055 0.149,-0.037 0.134,-0.022C0.118,-0.007 0.096,0 0.066,0C0.045,0 0.028,-0.004 0.015,-0.011C0.002,-0.018 -0.005,-0.026 -0.005,-0.034C-0.005,-0.04 -0.001,-0.049 0.006,-0.061C0.013,-0.073 0.022,-0.083 0.031,-0.09C0.033,-0.091 0.035,-0.091 0.037,-0.089C0.038,-0.087 0.038,-0.085 0.037,-0.083C0.032,-0.078 0.028,-0.071 0.025,-0.065C0.022,-0.058 0.022,-0.051 0.023,-0.046C0.025,-0.035 0.03,-0.026 0.039,-0.021C0.047,-0.015 0.057,-0.012 0.068,-0.012C0.085,-0.012 0.099,-0.017 0.109,-0.026C0.118,-0.035 0.123,-0.047 0.123,-0.062C0.123,-0.075 0.12,-0.086 0.114,-0.098C0.108,-0.109 0.102,-0.119 0.095,-0.13C0.087,-0.14 0.081,-0.15 0.076,-0.161C0.07,-0.171 0.067,-0.182 0.067,-0.194C0.067,-0.211 0.074,-0.226 0.086,-0.238C0.1,-0.25 0.117,-0.256 0.139,-0.256Z" style="fill:white;fill-rule:nonzero;"/>
                </g>
                <g transform="matrix(226,0,0,226,487.466,716.847)">
                    <path d="M0.065,0C0.056,0 0.049,-0.004 0.042,-0.013C0.035,-0.021 0.032,-0.032 0.032,-0.045C0.032,-0.056 0.034,-0.068 0.037,-0.083C0.04,-0.097 0.043,-0.112 0.049,-0.128C0.054,-0.144 0.06,-0.16 0.067,-0.176C0.074,-0.192 0.083,-0.207 0.092,-0.221C0.085,-0.216 0.077,-0.21 0.069,-0.203C0.061,-0.197 0.054,-0.191 0.049,-0.186C0.047,-0.185 0.045,-0.185 0.044,-0.188C0.043,-0.19 0.042,-0.192 0.043,-0.194C0.048,-0.199 0.054,-0.204 0.061,-0.21C0.068,-0.216 0.076,-0.222 0.085,-0.228C0.093,-0.234 0.102,-0.24 0.111,-0.246C0.119,-0.251 0.128,-0.256 0.136,-0.26C0.139,-0.261 0.141,-0.26 0.142,-0.258C0.144,-0.256 0.145,-0.254 0.144,-0.251C0.123,-0.224 0.106,-0.194 0.093,-0.161C0.08,-0.128 0.073,-0.096 0.073,-0.066C0.073,-0.047 0.079,-0.037 0.09,-0.037C0.099,-0.037 0.11,-0.043 0.123,-0.055C0.136,-0.066 0.149,-0.082 0.163,-0.101C0.177,-0.119 0.191,-0.141 0.205,-0.165C0.22,-0.189 0.233,-0.213 0.245,-0.238C0.247,-0.243 0.251,-0.247 0.257,-0.251C0.262,-0.254 0.268,-0.256 0.275,-0.256C0.284,-0.256 0.287,-0.253 0.284,-0.248C0.275,-0.231 0.266,-0.215 0.259,-0.2C0.252,-0.185 0.246,-0.17 0.241,-0.155C0.236,-0.14 0.233,-0.125 0.231,-0.11C0.228,-0.095 0.227,-0.078 0.227,-0.06C0.227,-0.039 0.233,-0.028 0.245,-0.028C0.25,-0.028 0.256,-0.031 0.263,-0.037C0.27,-0.042 0.276,-0.05 0.283,-0.059C0.285,-0.06 0.287,-0.06 0.289,-0.059C0.291,-0.058 0.291,-0.055 0.29,-0.052C0.281,-0.038 0.27,-0.026 0.258,-0.016C0.245,-0.005 0.233,0 0.222,0C0.213,0 0.206,-0.004 0.2,-0.013C0.194,-0.022 0.191,-0.033 0.191,-0.048C0.191,-0.064 0.193,-0.081 0.196,-0.1C0.199,-0.118 0.203,-0.136 0.21,-0.155C0.197,-0.13 0.184,-0.109 0.17,-0.09C0.156,-0.07 0.142,-0.054 0.13,-0.041C0.117,-0.028 0.104,-0.018 0.093,-0.011C0.082,-0.004 0.072,0 0.065,0Z" style="fill:white;fill-rule:nonzero;"/>
                </g>
                <g transform="matrix(226,0,0,226,555.04,716.847)">
                    <path d="M0.27,-0.063C0.271,-0.064 0.273,-0.064 0.275,-0.063C0.277,-0.062 0.278,-0.06 0.277,-0.057C0.263,-0.038 0.249,-0.023 0.235,-0.014C0.222,-0.005 0.21,0 0.201,0C0.195,0 0.19,-0.003 0.187,-0.009C0.183,-0.015 0.181,-0.023 0.18,-0.034C0.179,-0.044 0.179,-0.056 0.181,-0.069C0.182,-0.082 0.185,-0.095 0.189,-0.109C0.171,-0.081 0.152,-0.057 0.132,-0.037C0.112,-0.016 0.093,-0.004 0.074,0C0.062,0 0.052,-0.006 0.043,-0.018C0.035,-0.029 0.031,-0.047 0.031,-0.072C0.031,-0.094 0.035,-0.116 0.045,-0.138C0.054,-0.159 0.066,-0.179 0.081,-0.197C0.096,-0.214 0.114,-0.228 0.134,-0.239C0.154,-0.25 0.175,-0.255 0.197,-0.255C0.209,-0.255 0.219,-0.254 0.228,-0.251C0.237,-0.248 0.245,-0.244 0.252,-0.239C0.256,-0.242 0.262,-0.246 0.269,-0.249C0.276,-0.252 0.282,-0.253 0.288,-0.253C0.291,-0.253 0.292,-0.251 0.291,-0.248C0.276,-0.229 0.263,-0.209 0.252,-0.186C0.241,-0.163 0.232,-0.141 0.226,-0.12C0.22,-0.099 0.216,-0.08 0.215,-0.064C0.213,-0.047 0.214,-0.036 0.218,-0.03C0.221,-0.025 0.227,-0.025 0.236,-0.029C0.245,-0.034 0.256,-0.045 0.27,-0.063ZM0.096,-0.034C0.103,-0.034 0.113,-0.039 0.125,-0.05C0.136,-0.06 0.148,-0.073 0.161,-0.09C0.174,-0.107 0.186,-0.126 0.199,-0.147C0.211,-0.168 0.222,-0.189 0.231,-0.21C0.228,-0.219 0.222,-0.226 0.213,-0.231C0.203,-0.236 0.192,-0.239 0.179,-0.239C0.164,-0.239 0.151,-0.235 0.138,-0.228C0.125,-0.22 0.113,-0.209 0.103,-0.196C0.093,-0.182 0.085,-0.166 0.079,-0.147C0.073,-0.128 0.07,-0.108 0.07,-0.085C0.07,-0.07 0.073,-0.058 0.078,-0.049C0.083,-0.039 0.089,-0.034 0.096,-0.034Z" style="fill:white;fill-rule:nonzero;"/>
                </g>
                <g transform="matrix(226,0,0,226,621.484,716.847)">
                    <path d="M0.442,-0.743C0.459,-0.743 0.47,-0.735 0.475,-0.719C0.481,-0.703 0.478,-0.686 0.469,-0.668C0.468,-0.667 0.466,-0.667 0.464,-0.668C0.462,-0.669 0.461,-0.671 0.46,-0.673C0.461,-0.681 0.459,-0.688 0.452,-0.693C0.445,-0.698 0.434,-0.701 0.419,-0.701C0.39,-0.701 0.362,-0.689 0.334,-0.665C0.306,-0.641 0.279,-0.61 0.253,-0.572C0.227,-0.533 0.203,-0.49 0.181,-0.443C0.158,-0.396 0.139,-0.348 0.123,-0.302C0.106,-0.255 0.093,-0.21 0.084,-0.169C0.075,-0.127 0.07,-0.093 0.07,-0.067C0.07,-0.047 0.076,-0.037 0.087,-0.037C0.095,-0.037 0.103,-0.04 0.111,-0.047C0.118,-0.054 0.127,-0.064 0.137,-0.077C0.139,-0.078 0.141,-0.078 0.142,-0.077C0.144,-0.075 0.145,-0.073 0.144,-0.07C0.131,-0.049 0.116,-0.033 0.1,-0.02C0.084,-0.007 0.07,0 0.059,0C0.05,0 0.043,-0.004 0.038,-0.011C0.033,-0.018 0.03,-0.027 0.03,-0.039C0.03,-0.058 0.033,-0.082 0.04,-0.112C0.047,-0.141 0.056,-0.174 0.068,-0.211C0.08,-0.248 0.095,-0.286 0.112,-0.327C0.129,-0.367 0.147,-0.407 0.167,-0.446C0.187,-0.485 0.208,-0.523 0.231,-0.559C0.253,-0.595 0.276,-0.627 0.3,-0.654C0.323,-0.681 0.347,-0.703 0.371,-0.719C0.395,-0.735 0.419,-0.743 0.442,-0.743Z" style="fill:white;fill-rule:nonzero;"/>
                </g>
                <g transform="matrix(226,0,0,226,651.768,716.847)">
                    <path d="M0.139,-0.256C0.152,-0.256 0.164,-0.254 0.172,-0.25C0.182,-0.245 0.186,-0.24 0.186,-0.235C0.186,-0.228 0.185,-0.219 0.182,-0.21C0.179,-0.201 0.175,-0.193 0.172,-0.187C0.171,-0.186 0.169,-0.186 0.167,-0.187C0.164,-0.188 0.163,-0.189 0.164,-0.191C0.166,-0.196 0.167,-0.201 0.168,-0.207C0.169,-0.213 0.168,-0.218 0.167,-0.223C0.164,-0.236 0.154,-0.243 0.139,-0.243C0.128,-0.243 0.118,-0.24 0.112,-0.233C0.105,-0.226 0.101,-0.216 0.101,-0.203C0.101,-0.192 0.104,-0.182 0.11,-0.172C0.115,-0.163 0.122,-0.153 0.129,-0.143C0.136,-0.134 0.142,-0.124 0.148,-0.113C0.153,-0.102 0.156,-0.089 0.156,-0.076C0.156,-0.055 0.149,-0.037 0.134,-0.022C0.118,-0.007 0.096,0 0.066,0C0.045,0 0.028,-0.004 0.015,-0.011C0.002,-0.018 -0.005,-0.026 -0.005,-0.034C-0.005,-0.04 -0.001,-0.049 0.006,-0.061C0.013,-0.073 0.022,-0.083 0.031,-0.09C0.033,-0.091 0.035,-0.091 0.037,-0.089C0.038,-0.087 0.038,-0.085 0.037,-0.083C0.032,-0.078 0.028,-0.071 0.025,-0.065C0.022,-0.058 0.022,-0.051 0.023,-0.046C0.025,-0.035 0.03,-0.026 0.039,-0.021C0.047,-0.015 0.057,-0.012 0.068,-0.012C0.085,-0.012 0.099,-0.017 0.109,-0.026C0.118,-0.035 0.123,-0.047 0.123,-0.062C0.123,-0.075 0.12,-0.086 0.114,-0.098C0.108,-0.109 0.102,-0.119 0.095,-0.13C0.087,-0.14 0.081,-0.15 0.076,-0.161C0.07,-0.171 0.067,-0.182 0.067,-0.194C0.067,-0.211 0.074,-0.226 0.086,-0.238C0.1,-0.25 0.117,-0.256 0.139,-0.256Z" style="fill:white;fill-rule:nonzero;"/>
                </g>
            </g>
            <g transform="matrix(144,0,0,144,327.671,345.205)">
                <path d="M0.723,-0.692C0.715,-0.697 0.705,-0.7 0.693,-0.7C0.67,-0.7 0.649,-0.688 0.63,-0.662C0.581,-0.53 0.555,-0.46 0.554,-0.45C0.552,-0.441 0.551,-0.434 0.551,-0.43C0.551,-0.41 0.562,-0.396 0.584,-0.389C0.56,-0.379 0.544,-0.37 0.535,-0.36C0.52,-0.344 0.507,-0.319 0.496,-0.287L0.407,-0.042C0.39,0.005 0.378,0.031 0.37,0.036C0.367,0.038 0.364,0.039 0.36,0.039C0.356,0.039 0.353,0.037 0.35,0.035L0.191,-0.32C0.185,-0.335 0.176,-0.347 0.166,-0.355C0.149,-0.368 0.127,-0.379 0.101,-0.389C0.129,-0.405 0.143,-0.419 0.143,-0.433C0.143,-0.439 0.14,-0.449 0.135,-0.462L0.049,-0.682C0.032,-0.694 0.016,-0.7 0.002,-0.7C-0.008,-0.7 -0.018,-0.697 -0.026,-0.692C-0.03,-0.694 -0.032,-0.699 -0.032,-0.707C-0.032,-0.714 -0.031,-0.72 -0.028,-0.726C-0.026,-0.732 -0.022,-0.738 -0.018,-0.742C-0.007,-0.752 0.008,-0.757 0.027,-0.757C0.047,-0.757 0.064,-0.752 0.079,-0.741C0.096,-0.752 0.115,-0.757 0.137,-0.757C0.16,-0.757 0.179,-0.752 0.195,-0.742C0.213,-0.752 0.228,-0.757 0.243,-0.757C0.257,-0.757 0.269,-0.756 0.278,-0.754C0.287,-0.752 0.295,-0.748 0.302,-0.744C0.316,-0.736 0.324,-0.724 0.325,-0.709C0.325,-0.7 0.323,-0.694 0.319,-0.692C0.311,-0.697 0.302,-0.7 0.292,-0.7C0.272,-0.7 0.256,-0.696 0.245,-0.688L0.405,-0.231L0.555,-0.667C0.554,-0.678 0.549,-0.686 0.542,-0.693C0.535,-0.699 0.525,-0.703 0.51,-0.703C0.496,-0.703 0.484,-0.7 0.475,-0.694C0.471,-0.699 0.47,-0.707 0.47,-0.717C0.47,-0.728 0.474,-0.737 0.483,-0.745C0.492,-0.753 0.504,-0.757 0.519,-0.757C0.535,-0.757 0.549,-0.753 0.561,-0.746C0.571,-0.753 0.584,-0.757 0.6,-0.757C0.615,-0.757 0.628,-0.753 0.638,-0.746C0.653,-0.753 0.667,-0.757 0.681,-0.757C0.695,-0.757 0.707,-0.752 0.716,-0.743C0.724,-0.734 0.729,-0.722 0.729,-0.707C0.729,-0.7 0.727,-0.694 0.723,-0.692ZM0.555,-0.646C0.554,-0.644 0.554,-0.642 0.554,-0.642L0.555,-0.646ZM0.157,-0.61C0.15,-0.605 0.146,-0.598 0.146,-0.59C0.146,-0.582 0.147,-0.576 0.147,-0.571C0.148,-0.567 0.149,-0.562 0.151,-0.555C0.153,-0.548 0.156,-0.54 0.16,-0.529L0.187,-0.46C0.193,-0.443 0.197,-0.43 0.197,-0.422C0.199,-0.408 0.19,-0.397 0.17,-0.389C0.183,-0.387 0.194,-0.383 0.203,-0.38C0.212,-0.376 0.219,-0.367 0.226,-0.352C0.233,-0.337 0.242,-0.316 0.253,-0.288L0.294,-0.188C0.306,-0.158 0.32,-0.14 0.335,-0.134C0.339,-0.132 0.343,-0.13 0.348,-0.129L0.157,-0.61Z" style="fill:white;fill-rule:nonzero;"/>
            </g>
            <g transform="matrix(144,0,0,144,427.304,345.205)">
                <path d="M0.183,-0.646C0.167,-0.646 0.15,-0.65 0.135,-0.659C0.12,-0.668 0.108,-0.68 0.1,-0.694C0.091,-0.709 0.079,-0.721 0.064,-0.729C0.06,-0.731 0.055,-0.733 0.049,-0.736L0.065,-0.746C0.081,-0.756 0.093,-0.768 0.1,-0.782C0.108,-0.796 0.119,-0.807 0.134,-0.815C0.149,-0.823 0.166,-0.827 0.183,-0.827C0.22,-0.827 0.246,-0.811 0.262,-0.781C0.273,-0.761 0.29,-0.746 0.313,-0.736C0.309,-0.733 0.304,-0.73 0.299,-0.728C0.294,-0.726 0.29,-0.723 0.286,-0.72C0.276,-0.714 0.268,-0.704 0.26,-0.691C0.253,-0.679 0.243,-0.668 0.229,-0.659C0.215,-0.65 0.2,-0.646 0.183,-0.646ZM0.157,-0.706C0.155,-0.709 0.154,-0.713 0.153,-0.718C0.151,-0.723 0.151,-0.731 0.151,-0.743C0.151,-0.755 0.157,-0.771 0.169,-0.789C0.157,-0.789 0.149,-0.787 0.144,-0.782C0.139,-0.778 0.135,-0.774 0.133,-0.771C0.131,-0.768 0.128,-0.765 0.127,-0.762C0.125,-0.759 0.123,-0.756 0.12,-0.752C0.114,-0.743 0.109,-0.738 0.105,-0.736C0.11,-0.733 0.115,-0.728 0.119,-0.722C0.124,-0.716 0.129,-0.709 0.135,-0.702C0.144,-0.691 0.155,-0.686 0.169,-0.686L0.157,-0.706ZM0.134,-0.006C0.119,0.005 0.102,0.01 0.083,0.01C0.064,0.01 0.05,0.006 0.041,-0.003C0.031,-0.011 0.027,-0.02 0.027,-0.027C0.027,-0.038 0.029,-0.047 0.034,-0.053C0.041,-0.047 0.051,-0.044 0.065,-0.044C0.079,-0.044 0.091,-0.054 0.102,-0.072L0.102,-0.228C0.102,-0.242 0.099,-0.252 0.093,-0.259C0.083,-0.269 0.066,-0.279 0.042,-0.292C0.065,-0.302 0.079,-0.31 0.085,-0.316C0.096,-0.327 0.102,-0.34 0.102,-0.356L0.102,-0.427C0.102,-0.455 0.092,-0.47 0.073,-0.472C0.068,-0.473 0.061,-0.473 0.052,-0.473C0.044,-0.473 0.036,-0.47 0.029,-0.465C0.024,-0.471 0.022,-0.477 0.022,-0.484C0.022,-0.491 0.024,-0.498 0.027,-0.507C0.031,-0.515 0.036,-0.523 0.043,-0.53C0.06,-0.548 0.079,-0.557 0.102,-0.557C0.124,-0.557 0.144,-0.553 0.162,-0.545C0.178,-0.566 0.196,-0.576 0.216,-0.576C0.25,-0.576 0.267,-0.559 0.267,-0.523L0.267,-0.356C0.267,-0.34 0.27,-0.329 0.277,-0.322C0.287,-0.312 0.303,-0.302 0.326,-0.292C0.302,-0.279 0.286,-0.27 0.28,-0.264C0.271,-0.254 0.267,-0.242 0.267,-0.228L0.267,-0.07C0.277,-0.053 0.29,-0.044 0.303,-0.044C0.317,-0.044 0.327,-0.047 0.334,-0.053C0.339,-0.047 0.341,-0.039 0.341,-0.03C0.341,-0.02 0.337,-0.011 0.327,-0.003C0.318,0.006 0.304,0.01 0.286,0.01C0.267,0.01 0.25,0.005 0.234,-0.006C0.221,0.005 0.204,0.01 0.186,0.01C0.167,0.01 0.15,0.005 0.134,-0.006ZM0.177,-0.237L0.177,-0.341C0.176,-0.351 0.176,-0.36 0.176,-0.369C0.174,-0.392 0.173,-0.407 0.171,-0.416C0.167,-0.434 0.16,-0.447 0.148,-0.455L0.148,-0.423C0.148,-0.368 0.147,-0.336 0.145,-0.326C0.142,-0.316 0.138,-0.309 0.133,-0.304C0.128,-0.3 0.12,-0.296 0.109,-0.292C0.129,-0.285 0.14,-0.277 0.143,-0.267C0.146,-0.251 0.148,-0.216 0.148,-0.161L0.148,-0.129C0.163,-0.139 0.172,-0.159 0.174,-0.189C0.175,-0.21 0.176,-0.226 0.177,-0.237Z" style="fill:white;fill-rule:nonzero;"/>
            </g>
            <g transform="matrix(144,0,0,144,477.648,345.205)">
                <path d="M0.143,-0.012C0.12,0.009 0.099,0.02 0.079,0.02C0.067,0.02 0.059,0.016 0.055,0.007C0.063,0 0.066,-0.008 0.066,-0.015C0.066,-0.023 0.065,-0.028 0.063,-0.032L0.057,-0.043L0.064,-0.029C0.057,-0.032 0.051,-0.038 0.046,-0.047C0.042,-0.055 0.04,-0.066 0.04,-0.078C0.04,-0.09 0.047,-0.104 0.061,-0.12C0.054,-0.129 0.051,-0.139 0.051,-0.15C0.051,-0.161 0.053,-0.17 0.056,-0.177C0.06,-0.185 0.065,-0.191 0.071,-0.197C0.084,-0.21 0.098,-0.216 0.112,-0.216C0.122,-0.216 0.129,-0.212 0.133,-0.206C0.125,-0.196 0.12,-0.181 0.12,-0.161C0.12,-0.141 0.124,-0.123 0.131,-0.109C0.138,-0.095 0.147,-0.082 0.159,-0.072C0.185,-0.051 0.216,-0.04 0.253,-0.04C0.294,-0.04 0.323,-0.055 0.339,-0.085C0.343,-0.095 0.346,-0.104 0.346,-0.113C0.346,-0.122 0.344,-0.131 0.339,-0.138C0.335,-0.145 0.33,-0.152 0.323,-0.159C0.311,-0.17 0.294,-0.183 0.271,-0.197C0.248,-0.213 0.222,-0.221 0.191,-0.221C0.171,-0.221 0.158,-0.22 0.151,-0.216C0.155,-0.226 0.157,-0.236 0.157,-0.246C0.157,-0.255 0.151,-0.266 0.138,-0.278C0.125,-0.289 0.113,-0.301 0.103,-0.313C0.093,-0.324 0.084,-0.336 0.078,-0.348C0.066,-0.37 0.06,-0.393 0.06,-0.418C0.06,-0.443 0.065,-0.465 0.075,-0.484C0.085,-0.503 0.1,-0.519 0.118,-0.533C0.157,-0.562 0.207,-0.576 0.267,-0.576C0.296,-0.576 0.316,-0.575 0.327,-0.572C0.338,-0.57 0.347,-0.567 0.354,-0.565C0.362,-0.562 0.373,-0.56 0.386,-0.56C0.398,-0.56 0.407,-0.563 0.412,-0.568C0.417,-0.574 0.42,-0.579 0.42,-0.584C0.42,-0.588 0.419,-0.592 0.418,-0.595C0.42,-0.595 0.423,-0.596 0.427,-0.596C0.431,-0.596 0.436,-0.595 0.441,-0.592C0.446,-0.59 0.45,-0.587 0.454,-0.583C0.462,-0.574 0.466,-0.565 0.466,-0.555C0.466,-0.545 0.464,-0.537 0.46,-0.532C0.469,-0.524 0.474,-0.512 0.474,-0.496C0.474,-0.48 0.467,-0.467 0.454,-0.457C0.457,-0.451 0.458,-0.444 0.458,-0.435C0.458,-0.427 0.454,-0.418 0.445,-0.411C0.436,-0.403 0.427,-0.399 0.419,-0.399C0.405,-0.399 0.396,-0.401 0.391,-0.404C0.395,-0.415 0.397,-0.426 0.397,-0.438C0.397,-0.45 0.394,-0.462 0.387,-0.473C0.381,-0.484 0.372,-0.493 0.362,-0.5C0.343,-0.513 0.321,-0.52 0.295,-0.52C0.262,-0.52 0.24,-0.509 0.229,-0.488C0.225,-0.482 0.223,-0.475 0.223,-0.467C0.223,-0.459 0.224,-0.452 0.226,-0.446C0.228,-0.44 0.232,-0.433 0.237,-0.427C0.246,-0.414 0.26,-0.402 0.277,-0.391C0.299,-0.376 0.315,-0.369 0.324,-0.369C0.343,-0.369 0.359,-0.373 0.373,-0.382C0.369,-0.367 0.367,-0.356 0.367,-0.35C0.367,-0.34 0.375,-0.329 0.39,-0.317C0.432,-0.288 0.46,-0.261 0.476,-0.237C0.49,-0.214 0.498,-0.188 0.498,-0.159C0.498,-0.131 0.491,-0.106 0.479,-0.086C0.466,-0.065 0.449,-0.048 0.427,-0.033C0.382,-0.003 0.327,0.012 0.262,0.012C0.218,0.012 0.178,0.004 0.143,-0.012ZM0.125,-0.459C0.116,-0.454 0.111,-0.442 0.111,-0.421C0.111,-0.4 0.118,-0.381 0.131,-0.362C0.145,-0.343 0.166,-0.322 0.195,-0.299C0.202,-0.294 0.205,-0.289 0.205,-0.284C0.205,-0.276 0.204,-0.27 0.203,-0.266C0.207,-0.267 0.214,-0.268 0.224,-0.269C0.247,-0.271 0.277,-0.26 0.312,-0.235C0.368,-0.201 0.396,-0.165 0.396,-0.126C0.396,-0.112 0.394,-0.101 0.39,-0.094C0.402,-0.097 0.411,-0.106 0.417,-0.124C0.419,-0.129 0.419,-0.135 0.419,-0.14C0.419,-0.167 0.405,-0.193 0.377,-0.22C0.348,-0.248 0.307,-0.274 0.254,-0.299C0.165,-0.344 0.123,-0.397 0.125,-0.459Z" style="fill:white;fill-rule:nonzero;"/>
            </g>
            <g transform="matrix(144,0,0,144,552.179,345.205)">
                <path d="M0.452,-0.147C0.459,-0.161 0.472,-0.168 0.491,-0.168C0.504,-0.168 0.514,-0.163 0.521,-0.152C0.527,-0.143 0.53,-0.133 0.53,-0.121C0.53,-0.109 0.527,-0.096 0.521,-0.084C0.515,-0.072 0.507,-0.06 0.497,-0.05C0.487,-0.04 0.475,-0.031 0.462,-0.023C0.449,-0.016 0.435,-0.009 0.42,-0.004C0.39,0.007 0.358,0.012 0.325,0.012C0.292,0.012 0.261,0.006 0.232,-0.005C0.203,-0.017 0.177,-0.033 0.156,-0.054C0.114,-0.096 0.088,-0.152 0.079,-0.223C0.077,-0.239 0.073,-0.25 0.068,-0.257C0.058,-0.269 0.042,-0.28 0.02,-0.292C0.054,-0.307 0.074,-0.335 0.079,-0.376C0.088,-0.438 0.115,-0.487 0.162,-0.523C0.207,-0.559 0.262,-0.576 0.326,-0.576C0.382,-0.576 0.429,-0.559 0.467,-0.525C0.503,-0.493 0.521,-0.457 0.521,-0.415C0.521,-0.391 0.529,-0.376 0.546,-0.369C0.536,-0.353 0.522,-0.345 0.505,-0.345C0.499,-0.345 0.493,-0.346 0.488,-0.347C0.476,-0.331 0.46,-0.319 0.438,-0.313C0.432,-0.312 0.425,-0.311 0.419,-0.311C0.413,-0.311 0.405,-0.312 0.397,-0.315C0.389,-0.317 0.383,-0.32 0.379,-0.325C0.389,-0.329 0.394,-0.338 0.396,-0.354L0.387,-0.354C0.365,-0.354 0.351,-0.366 0.346,-0.392C0.37,-0.392 0.387,-0.401 0.398,-0.419C0.402,-0.426 0.404,-0.434 0.404,-0.443C0.404,-0.464 0.398,-0.481 0.384,-0.492C0.371,-0.504 0.352,-0.51 0.329,-0.51C0.274,-0.51 0.246,-0.475 0.246,-0.404L0.246,-0.167C0.246,-0.111 0.267,-0.076 0.31,-0.062C0.322,-0.057 0.336,-0.055 0.352,-0.055C0.367,-0.055 0.381,-0.057 0.394,-0.061C0.407,-0.064 0.418,-0.07 0.427,-0.077C0.445,-0.091 0.454,-0.108 0.454,-0.13C0.454,-0.136 0.453,-0.142 0.452,-0.147ZM0.165,-0.129C0.169,-0.133 0.171,-0.137 0.171,-0.142C0.171,-0.149 0.17,-0.158 0.167,-0.169C0.154,-0.22 0.147,-0.256 0.147,-0.276C0.147,-0.296 0.148,-0.311 0.149,-0.323C0.15,-0.334 0.152,-0.345 0.154,-0.356C0.158,-0.379 0.162,-0.398 0.167,-0.415C0.17,-0.426 0.171,-0.434 0.171,-0.438C0.171,-0.445 0.169,-0.451 0.165,-0.455C0.151,-0.438 0.14,-0.417 0.133,-0.389C0.126,-0.362 0.12,-0.338 0.116,-0.317C0.114,-0.308 0.104,-0.3 0.087,-0.292C0.104,-0.284 0.114,-0.276 0.116,-0.267C0.128,-0.212 0.138,-0.177 0.146,-0.162C0.153,-0.147 0.16,-0.136 0.165,-0.129Z" style="fill:white;fill-rule:nonzero;"/>
            </g>
            <g transform="matrix(144,0,0,144,630.437,345.205)">
                <path d="M0.471,-0.147C0.478,-0.161 0.492,-0.168 0.511,-0.168C0.524,-0.168 0.534,-0.163 0.541,-0.152C0.547,-0.143 0.55,-0.133 0.55,-0.121C0.55,-0.109 0.547,-0.096 0.541,-0.084C0.534,-0.072 0.526,-0.06 0.515,-0.05C0.504,-0.04 0.492,-0.031 0.478,-0.023C0.464,-0.016 0.45,-0.009 0.434,-0.004C0.402,0.007 0.368,0.012 0.333,0.012C0.299,0.012 0.266,0.006 0.236,-0.005C0.205,-0.017 0.179,-0.033 0.157,-0.054C0.115,-0.095 0.089,-0.151 0.079,-0.223C0.077,-0.239 0.073,-0.25 0.068,-0.257C0.058,-0.269 0.042,-0.28 0.02,-0.292C0.048,-0.304 0.066,-0.325 0.074,-0.353C0.076,-0.36 0.078,-0.368 0.079,-0.376C0.087,-0.433 0.116,-0.482 0.166,-0.522C0.214,-0.562 0.268,-0.581 0.328,-0.581C0.389,-0.581 0.443,-0.559 0.488,-0.516C0.535,-0.471 0.559,-0.416 0.559,-0.35C0.559,-0.348 0.559,-0.346 0.558,-0.343C0.558,-0.341 0.558,-0.339 0.559,-0.337C0.559,-0.333 0.562,-0.33 0.566,-0.33C0.572,-0.322 0.575,-0.314 0.575,-0.306C0.575,-0.286 0.565,-0.275 0.544,-0.271C0.539,-0.27 0.531,-0.269 0.52,-0.267L0.244,-0.223L0.244,-0.176C0.244,-0.139 0.256,-0.109 0.278,-0.086C0.3,-0.065 0.327,-0.055 0.36,-0.055C0.395,-0.055 0.423,-0.062 0.444,-0.076C0.464,-0.09 0.474,-0.108 0.474,-0.13C0.474,-0.135 0.473,-0.141 0.471,-0.147ZM0.386,-0.305L0.386,-0.442C0.386,-0.463 0.382,-0.479 0.373,-0.489C0.358,-0.507 0.343,-0.515 0.329,-0.515C0.314,-0.515 0.302,-0.513 0.292,-0.509C0.282,-0.504 0.274,-0.497 0.267,-0.488C0.252,-0.468 0.244,-0.437 0.244,-0.395L0.244,-0.282L0.386,-0.305ZM0.458,-0.317L0.458,-0.333C0.458,-0.393 0.453,-0.43 0.443,-0.442C0.438,-0.448 0.433,-0.452 0.428,-0.455L0.428,-0.313L0.458,-0.317ZM0.165,-0.129C0.169,-0.133 0.171,-0.137 0.171,-0.142C0.171,-0.149 0.17,-0.158 0.167,-0.169C0.154,-0.22 0.147,-0.256 0.147,-0.276C0.147,-0.296 0.148,-0.311 0.149,-0.323C0.15,-0.334 0.152,-0.345 0.154,-0.356C0.158,-0.379 0.162,-0.398 0.167,-0.415C0.17,-0.426 0.171,-0.434 0.171,-0.438C0.171,-0.445 0.169,-0.451 0.165,-0.455C0.151,-0.438 0.14,-0.417 0.133,-0.389C0.126,-0.362 0.12,-0.338 0.116,-0.317C0.114,-0.308 0.104,-0.3 0.087,-0.292C0.104,-0.283 0.114,-0.275 0.116,-0.267C0.128,-0.212 0.138,-0.177 0.146,-0.162C0.153,-0.147 0.16,-0.136 0.165,-0.129Z" style="fill:white;fill-rule:nonzero;"/>
            </g>
            <g transform="matrix(144,0,0,144,716.218,345.205)">
                <path d="M0.134,-0.006C0.119,0.005 0.102,0.01 0.083,0.01C0.064,0.01 0.05,0.005 0.041,-0.004C0.033,-0.013 0.028,-0.021 0.028,-0.029C0.028,-0.04 0.03,-0.048 0.034,-0.053C0.041,-0.047 0.05,-0.044 0.061,-0.044C0.082,-0.044 0.095,-0.055 0.102,-0.075L0.102,-0.223C0.102,-0.238 0.099,-0.249 0.093,-0.256C0.082,-0.269 0.065,-0.281 0.042,-0.292C0.082,-0.31 0.102,-0.338 0.102,-0.376L0.102,-0.427C0.102,-0.455 0.092,-0.47 0.073,-0.472C0.068,-0.473 0.061,-0.473 0.052,-0.473C0.044,-0.473 0.036,-0.47 0.029,-0.465C0.024,-0.471 0.022,-0.477 0.022,-0.484C0.022,-0.491 0.024,-0.498 0.027,-0.507C0.031,-0.515 0.036,-0.523 0.043,-0.53C0.06,-0.548 0.08,-0.557 0.102,-0.557C0.125,-0.557 0.144,-0.553 0.159,-0.546C0.177,-0.566 0.196,-0.576 0.216,-0.576C0.248,-0.576 0.264,-0.559 0.264,-0.523L0.264,-0.457C0.297,-0.537 0.348,-0.577 0.419,-0.577C0.451,-0.577 0.477,-0.567 0.497,-0.547C0.518,-0.528 0.528,-0.5 0.528,-0.465L0.528,-0.458C0.528,-0.456 0.528,-0.451 0.527,-0.444C0.526,-0.437 0.526,-0.43 0.528,-0.423C0.529,-0.416 0.531,-0.41 0.533,-0.405C0.537,-0.398 0.543,-0.393 0.553,-0.389C0.551,-0.38 0.546,-0.372 0.537,-0.365C0.529,-0.358 0.52,-0.355 0.51,-0.355L0.5,-0.355C0.488,-0.339 0.47,-0.328 0.447,-0.321C0.441,-0.319 0.434,-0.318 0.426,-0.318C0.418,-0.318 0.412,-0.32 0.406,-0.323C0.4,-0.327 0.397,-0.331 0.396,-0.334C0.403,-0.337 0.406,-0.343 0.406,-0.352L0.406,-0.354L0.394,-0.354C0.383,-0.354 0.374,-0.358 0.365,-0.366C0.356,-0.374 0.351,-0.384 0.348,-0.396C0.366,-0.396 0.381,-0.402 0.394,-0.416C0.406,-0.428 0.412,-0.44 0.412,-0.453C0.412,-0.483 0.399,-0.498 0.373,-0.498C0.35,-0.498 0.327,-0.48 0.305,-0.444C0.283,-0.411 0.27,-0.377 0.264,-0.342L0.264,-0.078C0.268,-0.067 0.273,-0.058 0.281,-0.053C0.288,-0.047 0.299,-0.044 0.312,-0.044C0.325,-0.044 0.335,-0.047 0.342,-0.053C0.345,-0.048 0.347,-0.041 0.347,-0.031C0.347,-0.022 0.343,-0.013 0.334,-0.004C0.326,0.005 0.311,0.01 0.291,0.01C0.27,0.01 0.251,0.004 0.232,-0.007C0.219,0.004 0.204,0.01 0.185,0.01C0.167,0.01 0.15,0.005 0.134,-0.006ZM0.177,-0.238L0.177,-0.341C0.176,-0.351 0.176,-0.36 0.176,-0.369C0.174,-0.403 0.17,-0.425 0.165,-0.434C0.159,-0.444 0.154,-0.451 0.148,-0.454L0.148,-0.422C0.148,-0.368 0.147,-0.336 0.145,-0.326C0.142,-0.316 0.138,-0.309 0.133,-0.304C0.128,-0.3 0.12,-0.296 0.109,-0.292C0.129,-0.285 0.14,-0.277 0.143,-0.267C0.146,-0.251 0.148,-0.216 0.148,-0.162L0.148,-0.13C0.163,-0.14 0.172,-0.16 0.174,-0.189C0.175,-0.211 0.176,-0.227 0.177,-0.238Z" style="fill:white;fill-rule:nonzero;"/>
            </g>
            <g transform="matrix(144,0,0,144,793.632,345.205)">
                <path d="M0.385,-0.046C0.355,-0.007 0.311,0.012 0.251,0.012C0.179,0.012 0.125,-0.009 0.089,-0.053C0.073,-0.071 0.063,-0.092 0.057,-0.115C0.053,-0.128 0.048,-0.139 0.04,-0.146C0.031,-0.154 0.021,-0.16 0.009,-0.166C0.033,-0.177 0.049,-0.197 0.06,-0.227C0.07,-0.258 0.088,-0.28 0.113,-0.294C0.14,-0.309 0.17,-0.317 0.203,-0.318C0.235,-0.318 0.259,-0.319 0.275,-0.321C0.291,-0.322 0.304,-0.324 0.316,-0.327C0.339,-0.332 0.356,-0.342 0.369,-0.356L0.369,-0.429C0.369,-0.461 0.363,-0.485 0.349,-0.5C0.336,-0.515 0.316,-0.522 0.289,-0.522C0.262,-0.522 0.243,-0.517 0.23,-0.508C0.217,-0.498 0.21,-0.484 0.21,-0.468C0.21,-0.442 0.223,-0.43 0.25,-0.431C0.244,-0.405 0.231,-0.393 0.208,-0.393C0.202,-0.393 0.196,-0.394 0.189,-0.396L0.189,-0.395C0.189,-0.386 0.193,-0.381 0.201,-0.378C0.193,-0.366 0.179,-0.36 0.16,-0.36C0.141,-0.361 0.126,-0.371 0.115,-0.391C0.11,-0.39 0.105,-0.389 0.098,-0.389C0.092,-0.389 0.085,-0.391 0.077,-0.396C0.07,-0.4 0.064,-0.406 0.059,-0.413C0.075,-0.423 0.085,-0.438 0.089,-0.458C0.093,-0.484 0.113,-0.509 0.149,-0.535C0.193,-0.566 0.248,-0.581 0.316,-0.581C0.428,-0.581 0.497,-0.547 0.521,-0.478C0.53,-0.454 0.534,-0.427 0.534,-0.396L0.534,-0.356C0.534,-0.34 0.538,-0.327 0.546,-0.317C0.554,-0.307 0.567,-0.299 0.586,-0.292C0.566,-0.283 0.553,-0.274 0.547,-0.267C0.538,-0.255 0.534,-0.242 0.534,-0.228L0.534,-0.081C0.543,-0.057 0.557,-0.044 0.574,-0.044C0.585,-0.044 0.594,-0.047 0.602,-0.053C0.606,-0.047 0.608,-0.039 0.608,-0.03C0.608,-0.02 0.604,-0.011 0.594,-0.003C0.585,0.006 0.571,0.01 0.553,0.01C0.534,0.01 0.517,0.005 0.501,-0.006C0.487,0.005 0.475,0.01 0.464,0.01C0.453,0.01 0.443,0.009 0.435,0.007C0.427,0.004 0.42,0.001 0.413,-0.003C0.398,-0.014 0.388,-0.028 0.385,-0.046ZM0.416,-0.129C0.434,-0.137 0.444,-0.173 0.445,-0.237L0.445,-0.329C0.445,-0.342 0.445,-0.354 0.444,-0.365C0.443,-0.406 0.439,-0.431 0.433,-0.439C0.427,-0.447 0.421,-0.452 0.416,-0.455L0.416,-0.129ZM0.235,-0.164C0.235,-0.15 0.237,-0.137 0.24,-0.124C0.243,-0.111 0.247,-0.1 0.253,-0.09C0.266,-0.069 0.284,-0.059 0.308,-0.059C0.326,-0.059 0.341,-0.066 0.353,-0.081C0.364,-0.095 0.369,-0.114 0.369,-0.136L0.369,-0.295C0.348,-0.283 0.322,-0.275 0.289,-0.271C0.253,-0.265 0.235,-0.229 0.235,-0.164ZM0.162,-0.054C0.165,-0.056 0.167,-0.059 0.167,-0.063C0.167,-0.068 0.165,-0.075 0.16,-0.083C0.144,-0.113 0.136,-0.138 0.136,-0.157C0.136,-0.176 0.136,-0.19 0.138,-0.199C0.139,-0.207 0.141,-0.214 0.144,-0.22C0.146,-0.226 0.149,-0.232 0.152,-0.236C0.155,-0.241 0.158,-0.245 0.16,-0.249C0.164,-0.256 0.167,-0.261 0.167,-0.264C0.167,-0.267 0.165,-0.269 0.162,-0.271C0.149,-0.265 0.139,-0.257 0.133,-0.249C0.122,-0.234 0.114,-0.215 0.108,-0.191C0.107,-0.184 0.096,-0.176 0.074,-0.166C0.095,-0.157 0.106,-0.148 0.108,-0.141C0.119,-0.102 0.137,-0.073 0.162,-0.054Z" style="fill:white;fill-rule:nonzero;"/>
            </g>
            <g transform="matrix(144,0,0,144,883.702,345.205)">
                <path d="M0.137,-0.006C0.122,0.005 0.105,0.01 0.086,0.01C0.067,0.01 0.053,0.006 0.044,-0.003C0.034,-0.011 0.03,-0.02 0.03,-0.027C0.03,-0.038 0.032,-0.047 0.037,-0.053C0.044,-0.047 0.053,-0.044 0.064,-0.044C0.083,-0.044 0.096,-0.055 0.104,-0.077L0.104,-0.228C0.104,-0.242 0.102,-0.252 0.096,-0.259C0.086,-0.269 0.069,-0.279 0.045,-0.292C0.068,-0.302 0.082,-0.31 0.089,-0.317C0.099,-0.328 0.104,-0.341 0.104,-0.356L0.104,-0.632C0.104,-0.669 0.089,-0.688 0.059,-0.688C0.048,-0.688 0.039,-0.685 0.032,-0.68C0.027,-0.686 0.025,-0.692 0.025,-0.699C0.025,-0.706 0.027,-0.712 0.03,-0.718C0.033,-0.724 0.039,-0.73 0.046,-0.735C0.061,-0.746 0.081,-0.752 0.104,-0.752C0.127,-0.752 0.146,-0.75 0.159,-0.748C0.177,-0.77 0.197,-0.781 0.219,-0.781C0.252,-0.781 0.268,-0.764 0.268,-0.729L0.268,-0.356C0.268,-0.341 0.271,-0.33 0.278,-0.323C0.288,-0.312 0.305,-0.302 0.328,-0.292C0.303,-0.279 0.288,-0.27 0.282,-0.264C0.273,-0.254 0.268,-0.242 0.268,-0.228L0.268,-0.077C0.276,-0.055 0.289,-0.044 0.309,-0.044C0.32,-0.044 0.329,-0.047 0.336,-0.053C0.34,-0.047 0.343,-0.039 0.343,-0.03C0.343,-0.02 0.338,-0.011 0.329,-0.003C0.32,0.006 0.306,0.01 0.287,0.01C0.269,0.01 0.251,0.005 0.235,-0.006C0.222,0.005 0.206,0.01 0.188,0.01C0.169,0.01 0.153,0.005 0.137,-0.006ZM0.151,-0.13C0.166,-0.139 0.175,-0.16 0.177,-0.192C0.178,-0.206 0.179,-0.222 0.179,-0.239C0.18,-0.256 0.18,-0.268 0.18,-0.276L0.18,-0.425C0.179,-0.511 0.177,-0.559 0.175,-0.569C0.17,-0.589 0.162,-0.603 0.151,-0.61L0.151,-0.446C0.151,-0.378 0.151,-0.341 0.149,-0.333C0.148,-0.326 0.146,-0.32 0.146,-0.316C0.143,-0.306 0.132,-0.298 0.112,-0.292C0.132,-0.285 0.143,-0.277 0.146,-0.267C0.149,-0.251 0.151,-0.216 0.151,-0.162L0.151,-0.13Z" style="fill:white;fill-rule:nonzero;"/>
            </g>
        </g>
    </g>
</svg>
